%TF.GenerationSoftware,KiCad,Pcbnew,8.0.9-8.0.9-0~ubuntu22.04.1*%
%TF.CreationDate,2025-08-01T10:09:19+03:00*%
%TF.ProjectId,url,75726c2e-6b69-4636-9164-5f7063625858,rev?*%
%TF.SameCoordinates,Original*%
%TF.FileFunction,Drillmap*%
%TF.FilePolarity,Positive*%
%FSLAX45Y45*%
G04 Gerber Fmt 4.5, Leading zero omitted, Abs format (unit mm)*
G04 Created by KiCad (PCBNEW 8.0.9-8.0.9-0~ubuntu22.04.1) date 2025-08-01 10:09:19*
%MOMM*%
%LPD*%
G01*
G04 APERTURE LIST*
%ADD10C,0.050000*%
%ADD11C,0.200000*%
G04 APERTURE END LIST*
D10*
X-740000Y1200000D02*
X9280000Y1200000D01*
X9280000Y-960000D01*
X-740000Y-960000D01*
X-740000Y1200000D01*
D11*
X-481723Y-1273984D02*
X-481723Y-1073984D01*
X-481723Y-1073984D02*
X-434104Y-1073984D01*
X-434104Y-1073984D02*
X-405533Y-1083508D01*
X-405533Y-1083508D02*
X-386485Y-1102555D01*
X-386485Y-1102555D02*
X-376961Y-1121603D01*
X-376961Y-1121603D02*
X-367437Y-1159698D01*
X-367437Y-1159698D02*
X-367437Y-1188270D01*
X-367437Y-1188270D02*
X-376961Y-1226365D01*
X-376961Y-1226365D02*
X-386485Y-1245412D01*
X-386485Y-1245412D02*
X-405533Y-1264460D01*
X-405533Y-1264460D02*
X-434104Y-1273984D01*
X-434104Y-1273984D02*
X-481723Y-1273984D01*
X-281723Y-1273984D02*
X-281723Y-1140650D01*
X-281723Y-1178746D02*
X-272199Y-1159698D01*
X-272199Y-1159698D02*
X-262676Y-1150174D01*
X-262676Y-1150174D02*
X-243628Y-1140650D01*
X-243628Y-1140650D02*
X-224580Y-1140650D01*
X-157914Y-1273984D02*
X-157914Y-1140650D01*
X-157914Y-1073984D02*
X-167437Y-1083508D01*
X-167437Y-1083508D02*
X-157914Y-1093031D01*
X-157914Y-1093031D02*
X-148390Y-1083508D01*
X-148390Y-1083508D02*
X-157914Y-1073984D01*
X-157914Y-1073984D02*
X-157914Y-1093031D01*
X-34104Y-1273984D02*
X-53152Y-1264460D01*
X-53152Y-1264460D02*
X-62675Y-1245412D01*
X-62675Y-1245412D02*
X-62675Y-1073984D01*
X70658Y-1273984D02*
X51610Y-1264460D01*
X51610Y-1264460D02*
X42086Y-1245412D01*
X42086Y-1245412D02*
X42086Y-1073984D01*
X299229Y-1273984D02*
X299229Y-1073984D01*
X299229Y-1073984D02*
X365896Y-1216841D01*
X365896Y-1216841D02*
X432562Y-1073984D01*
X432562Y-1073984D02*
X432562Y-1273984D01*
X613515Y-1273984D02*
X613515Y-1169222D01*
X613515Y-1169222D02*
X603991Y-1150174D01*
X603991Y-1150174D02*
X584944Y-1140650D01*
X584944Y-1140650D02*
X546848Y-1140650D01*
X546848Y-1140650D02*
X527801Y-1150174D01*
X613515Y-1264460D02*
X594467Y-1273984D01*
X594467Y-1273984D02*
X546848Y-1273984D01*
X546848Y-1273984D02*
X527801Y-1264460D01*
X527801Y-1264460D02*
X518277Y-1245412D01*
X518277Y-1245412D02*
X518277Y-1226365D01*
X518277Y-1226365D02*
X527801Y-1207317D01*
X527801Y-1207317D02*
X546848Y-1197793D01*
X546848Y-1197793D02*
X594467Y-1197793D01*
X594467Y-1197793D02*
X613515Y-1188270D01*
X708753Y-1140650D02*
X708753Y-1340650D01*
X708753Y-1150174D02*
X727801Y-1140650D01*
X727801Y-1140650D02*
X765896Y-1140650D01*
X765896Y-1140650D02*
X784943Y-1150174D01*
X784943Y-1150174D02*
X794467Y-1159698D01*
X794467Y-1159698D02*
X803991Y-1178746D01*
X803991Y-1178746D02*
X803991Y-1235889D01*
X803991Y-1235889D02*
X794467Y-1254936D01*
X794467Y-1254936D02*
X784943Y-1264460D01*
X784943Y-1264460D02*
X765896Y-1273984D01*
X765896Y-1273984D02*
X727801Y-1273984D01*
X727801Y-1273984D02*
X708753Y-1264460D01*
X889705Y-1254936D02*
X899229Y-1264460D01*
X899229Y-1264460D02*
X889705Y-1273984D01*
X889705Y-1273984D02*
X880182Y-1264460D01*
X880182Y-1264460D02*
X889705Y-1254936D01*
X889705Y-1254936D02*
X889705Y-1273984D01*
X889705Y-1150174D02*
X899229Y-1159698D01*
X899229Y-1159698D02*
X889705Y-1169222D01*
X889705Y-1169222D02*
X880182Y-1159698D01*
X880182Y-1159698D02*
X889705Y-1150174D01*
X889705Y-1150174D02*
X889705Y-1169222D01*
M02*
