<?xml version='1.0' encoding='UTF-8' standalone='no'?>
<svg width="297mm" viewBox="0 0 2970 2100" version="1.2" xmlns:xlink="http://www.w3.org/1999/xlink" height="210mm" baseProfile="tiny" xmlns="http://www.w3.org/2000/svg">
 <title>FreeCAD SVG Export</title>
 <desc>Drawing page: Page015 exported from FreeCAD document: j__rviradio_radio</desc>
 <defs/>
 <g stroke="black" stroke-width="1" fill="none" stroke-linejoin="bevel" stroke-linecap="square" id="Page015" fill-rule="evenodd">
  <g stroke="#000000" stroke-width="1" font-family="Ubuntu" fill="none" stroke-linejoin="bevel" transform="matrix(1,0,0,1,0,0)" stroke-linecap="square" font-size="38.8056" font-style="normal" stroke-opacity="1" font-weight="400"/>
  <g stroke="#000000" stroke-width="1" font-family="Ubuntu" fill="none" stroke-linejoin="bevel" transform="matrix(1,0,0,1,0,2100)" stroke-linecap="square" font-size="38.8056" font-style="normal" stroke-opacity="1" font-weight="400"/>
  <g stroke="#000000" stroke-width="1" font-family="Ubuntu" fill="none" stroke-linejoin="bevel" transform="matrix(1,0,0,1,0,2100)" stroke-linecap="square" font-size="38.8056" font-style="normal" stroke-opacity="1" font-weight="400"/>
  <g stroke="#000000" stroke-width="1" font-family="Ubuntu" fill="none" stroke-linejoin="bevel" transform="matrix(2.82319,0,0,2.82258,0,0)" stroke-linecap="square" font-size="38.8056" font-style="normal" stroke-opacity="1" font-weight="400"/>
  <g stroke="#000000" stroke-width="1" font-family="Ubuntu" fill="none" stroke-linejoin="bevel" transform="matrix(2.82319,0,0,2.82258,0,0)" stroke-linecap="square" font-size="38.8056" font-style="normal" stroke-opacity="1" font-weight="400"/>
  <g stroke="#000000" stroke-width="1" font-family="Ubuntu" fill="none" stroke-linejoin="bevel" transform="matrix(2.82319,0,0,2.82258,0,0)" stroke-linecap="square" font-size="38.8056" font-style="normal" stroke-opacity="1" font-weight="400"/>
  <g stroke="#000000" stroke-width="1" font-family="Ubuntu" fill="none" stroke-linejoin="bevel" transform="matrix(2.82319,0,0,2.82258,0,0)" stroke-linecap="square" font-size="38.8056" font-style="normal" stroke-opacity="1" font-weight="400"/>
  <g stroke="#000000" stroke-width="1" font-family="Ubuntu" fill="none" stroke-linejoin="bevel" transform="matrix(1,0,0,1,0,0)" stroke-linecap="square" font-size="38.8056" font-style="normal" stroke-opacity="1" font-weight="400"/>
  <g stroke="#000000" stroke-width="1" font-family="Ubuntu" fill="none" stroke-linejoin="bevel" transform="matrix(2.82319,0,0,2.82258,0,0)" stroke-linecap="square" font-size="38.8056" font-style="normal" stroke-opacity="1" font-weight="400"/>
  <g stroke="#000000" stroke-width="1" font-family="Ubuntu" fill="none" stroke-linejoin="bevel" transform="matrix(1,0,0,1,1485,1050)" stroke-linecap="square" font-size="38.8056" font-style="normal" stroke-opacity="1" font-weight="400"/>
  <g stroke="#000000" stroke-width="1" font-family="Ubuntu" fill="none" stroke-linejoin="bevel" transform="matrix(1,0,0,1,1485,1050)" stroke-linecap="square" font-size="38.8056" font-style="normal" stroke-opacity="1" font-weight="400"/>
  <g stroke="#000000" stroke-width="1" font-family="Ubuntu" fill="none" stroke-linejoin="bevel" transform="matrix(1,0,0,1,1483.75,1567)" stroke-linecap="square" font-size="38.8056" font-style="normal" stroke-opacity="1" font-weight="400"/>
  <g stroke="#000000" stroke-width="1" font-family="Ubuntu" fill="none" stroke-linejoin="bevel" transform="matrix(0.353,0,0,0.353,1475.75,1627.36)" stroke-linecap="square" font-size="38.8056" font-style="normal" stroke-opacity="1" font-weight="400"/>
  <g stroke="#000000" stroke-width="1" font-family="Ubuntu" fill="none" stroke-linejoin="bevel" transform="matrix(0.353,0,0,0.353,1475.75,1627.36)" stroke-linecap="square" font-size="38.8056" font-style="normal" stroke-opacity="1" font-weight="400"/>
  <g stroke="#000000" stroke-width="1" font-family="Ubuntu" fill="none" stroke-linejoin="bevel" transform="matrix(0.353,0,0,0.353,1475.75,1627.36)" stroke-linecap="square" font-size="38.8056" font-style="normal" stroke-opacity="1" font-weight="400"/>
  <g stroke="#000000" stroke-width="1" font-family="Ubuntu" fill="none" stroke-linejoin="bevel" transform="matrix(0.353,0,0,0.353,1475.75,1627.36)" stroke-linecap="square" font-size="38.8056" font-style="normal" stroke-opacity="1" font-weight="400"/>
  <g stroke="#000000" stroke-width="1" font-family="Ubuntu" fill="none" stroke-linejoin="bevel" transform="matrix(1,0,0,1,0,0)" stroke-linecap="square" font-size="38.8056" font-style="normal" stroke-opacity="1" font-weight="400"/>
  <g stroke="#000000" stroke-width="1" font-family="Ubuntu" fill="none" stroke-linejoin="bevel" transform="matrix(0.353,0,0,0.353,1475.75,1627.36)" stroke-linecap="square" font-size="38.8056" font-style="normal" stroke-opacity="1" font-weight="400"/>
  <g stroke="#000000" stroke-width="1" font-family="Ubuntu" fill="none" stroke-linejoin="bevel" transform="matrix(0.353,0,0,0.353,1475.75,1627.36)" stroke-linecap="square" font-size="38.8056" font-style="normal" stroke-opacity="1" font-weight="400"/>
  <g stroke="#000000" stroke-width="1" font-family="Ubuntu" fill="none" stroke-linejoin="bevel" transform="matrix(1,0,0,1,1483.75,1567)" stroke-linecap="square" font-size="38.8056" font-style="normal" stroke-opacity="1" font-weight="400"/>
  <g stroke="#000000" stroke-width="1" font-family="Ubuntu" fill="none" stroke-linejoin="bevel" transform="matrix(1,0,0,1,1485,1050)" stroke-linecap="square" font-size="38.8056" font-style="normal" stroke-opacity="1" font-weight="400"/>
  <g stroke="none" font-family="Ubuntu" fill="#ffffff" fill-opacity="1" transform="matrix(1,0,0,1,1485,1050)" font-size="38.8056" font-style="normal" font-weight="400">
   <path vector-effect="non-scaling-stroke" fill-rule="evenodd" d="M500,0 C500,276.142 276.142,500 0,500 C-276.142,500 -500,276.142 -500,0 C-500,-276.142 -276.142,-500 0,-500 C276.142,-500 500,-276.142 500,0 "/>
  </g>
  <g stroke="#000000" stroke-width="1" font-family="Ubuntu" fill="none" stroke-linejoin="bevel" transform="matrix(1,0,0,1,1485,1050)" stroke-linecap="square" font-size="38.8056" font-style="normal" stroke-opacity="1" font-weight="400"/>
  <g stroke="#000000" stroke-width="1" font-family="Ubuntu" fill="none" stroke-linejoin="bevel" transform="matrix(1,0,0,1,1485,1050)" stroke-linecap="square" font-size="38.8056" font-style="normal" stroke-opacity="1" font-weight="400"/>
  <g stroke="#000000" stroke-width="1" font-family="Ubuntu" fill="none" stroke-linejoin="bevel" transform="matrix(1,0,0,1,1485,1050)" stroke-linecap="square" font-size="38.8056" font-style="normal" stroke-opacity="1" font-weight="400"/>
  <g stroke="#000000" stroke-width="1" font-family="Ubuntu" fill="none" stroke-linejoin="bevel" transform="matrix(1,0,0,1,0,0)" stroke-linecap="square" font-size="38.8056" font-style="normal" stroke-opacity="1" font-weight="400"/>
  <g stroke="#000000" stroke-width="1" font-family="Ubuntu" fill="none" stroke-linejoin="bevel" transform="matrix(1,0,0,1,1485,1050)" stroke-linecap="square" font-size="38.8056" font-style="normal" stroke-opacity="1" font-weight="400"/>
  <g stroke="#000000" stroke-width="1" font-family="Ubuntu" fill="none" stroke-linejoin="bevel" transform="matrix(1,0,0,1,1485,1050)" stroke-linecap="square" font-size="38.8056" font-style="normal" stroke-opacity="1" font-weight="400"/>
  <g stroke="none" font-family="Ubuntu" fill="#ffffff" fill-opacity="1" transform="matrix(1,0,0,1,1485,1050)" font-size="38.8056" font-style="normal" font-weight="400">
   <path vector-effect="non-scaling-stroke" fill-rule="evenodd" d="M370,0 C370,204.345 204.345,370 0,370 C-204.345,370 -370,204.345 -370,0 C-370,-204.345 -204.345,-370 0,-370 C204.345,-370 370,-204.345 370,0 "/>
  </g>
  <g stroke="#000000" stroke-width="1" font-family="Ubuntu" fill="none" stroke-linejoin="bevel" transform="matrix(1,0,0,1,1485,1050)" stroke-linecap="square" font-size="38.8056" font-style="normal" stroke-opacity="1" font-weight="400"/>
  <g stroke="#000000" stroke-width="1" font-family="Ubuntu" fill="none" stroke-linejoin="bevel" transform="matrix(1,0,0,1,1485,1050)" stroke-linecap="square" font-size="38.8056" font-style="normal" stroke-opacity="1" font-weight="400"/>
  <g stroke="#000000" stroke-width="1" font-family="Ubuntu" fill="none" stroke-linejoin="bevel" transform="matrix(1,0,0,1,1485,1050)" stroke-linecap="square" font-size="38.8056" font-style="normal" stroke-opacity="1" font-weight="400"/>
  <g stroke="#000000" stroke-width="1" font-family="Ubuntu" fill="none" stroke-linejoin="bevel" transform="matrix(1,0,0,1,0,0)" stroke-linecap="square" font-size="38.8056" font-style="normal" stroke-opacity="1" font-weight="400"/>
  <g stroke="#000000" stroke-width="1" font-family="Ubuntu" fill="none" stroke-linejoin="bevel" transform="matrix(1,0,0,1,1485,1050)" stroke-linecap="square" font-size="38.8056" font-style="normal" stroke-opacity="1" font-weight="400"/>
  <g stroke="#000000" stroke-width="1" font-family="Ubuntu" fill="none" stroke-linejoin="bevel" transform="matrix(1,0,0,1,1485,1050)" stroke-linecap="square" font-size="38.8056" font-style="normal" stroke-opacity="1" font-weight="400"/>
  <g stroke="none" font-family="Ubuntu" fill="#ffffff" fill-opacity="1" transform="matrix(1,0,0,1,1485,1050)" font-size="38.8056" font-style="normal" font-weight="400">
   <path vector-effect="non-scaling-stroke" fill-rule="evenodd" d="M-273.449,-293.449 C-273.449,-282.404 -282.404,-273.449 -293.449,-273.449 C-304.495,-273.449 -313.449,-282.404 -313.449,-293.449 C-313.449,-304.495 -304.495,-313.449 -293.449,-313.449 C-282.404,-313.449 -273.449,-304.495 -273.449,-293.449 "/>
  </g>
  <g stroke="#000000" stroke-width="1" font-family="Ubuntu" fill="none" stroke-linejoin="bevel" transform="matrix(1,0,0,1,1485,1050)" stroke-linecap="square" font-size="38.8056" font-style="normal" stroke-opacity="1" font-weight="400"/>
  <g stroke="#000000" stroke-width="1" font-family="Ubuntu" fill="none" stroke-linejoin="bevel" transform="matrix(1,0,0,1,1485,1050)" stroke-linecap="square" font-size="38.8056" font-style="normal" stroke-opacity="1" font-weight="400"/>
  <g stroke="#000000" stroke-width="1" font-family="Ubuntu" fill="none" stroke-linejoin="bevel" transform="matrix(1,0,0,1,1485,1050)" stroke-linecap="square" font-size="38.8056" font-style="normal" stroke-opacity="1" font-weight="400"/>
  <g stroke="#000000" stroke-width="1" font-family="Ubuntu" fill="none" stroke-linejoin="bevel" transform="matrix(1,0,0,1,0,0)" stroke-linecap="square" font-size="38.8056" font-style="normal" stroke-opacity="1" font-weight="400"/>
  <g stroke="#000000" stroke-width="1" font-family="Ubuntu" fill="none" stroke-linejoin="bevel" transform="matrix(1,0,0,1,1485,1050)" stroke-linecap="square" font-size="38.8056" font-style="normal" stroke-opacity="1" font-weight="400"/>
  <g stroke="#000000" stroke-width="1" font-family="Ubuntu" fill="none" stroke-linejoin="bevel" transform="matrix(1,0,0,1,1485,1050)" stroke-linecap="square" font-size="38.8056" font-style="normal" stroke-opacity="1" font-weight="400"/>
  <g stroke="none" font-family="Ubuntu" fill="#ffffff" fill-opacity="1" transform="matrix(1,0,0,1,1485,1050)" font-size="38.8056" font-style="normal" font-weight="400">
   <path vector-effect="non-scaling-stroke" fill-rule="evenodd" d="M-273.449,293.449 C-273.449,304.495 -282.404,313.449 -293.449,313.449 C-304.495,313.449 -313.449,304.495 -313.449,293.449 C-313.449,282.404 -304.495,273.449 -293.449,273.449 C-282.404,273.449 -273.449,282.404 -273.449,293.449 "/>
  </g>
  <g stroke="#000000" stroke-width="1" font-family="Ubuntu" fill="none" stroke-linejoin="bevel" transform="matrix(1,0,0,1,1485,1050)" stroke-linecap="square" font-size="38.8056" font-style="normal" stroke-opacity="1" font-weight="400"/>
  <g stroke="#000000" stroke-width="1" font-family="Ubuntu" fill="none" stroke-linejoin="bevel" transform="matrix(1,0,0,1,1485,1050)" stroke-linecap="square" font-size="38.8056" font-style="normal" stroke-opacity="1" font-weight="400"/>
  <g stroke="#000000" stroke-width="1" font-family="Ubuntu" fill="none" stroke-linejoin="bevel" transform="matrix(1,0,0,1,1485,1050)" stroke-linecap="square" font-size="38.8056" font-style="normal" stroke-opacity="1" font-weight="400"/>
  <g stroke="#000000" stroke-width="1" font-family="Ubuntu" fill="none" stroke-linejoin="bevel" transform="matrix(1,0,0,1,0,0)" stroke-linecap="square" font-size="38.8056" font-style="normal" stroke-opacity="1" font-weight="400"/>
  <g stroke="#000000" stroke-width="1" font-family="Ubuntu" fill="none" stroke-linejoin="bevel" transform="matrix(1,0,0,1,1485,1050)" stroke-linecap="square" font-size="38.8056" font-style="normal" stroke-opacity="1" font-weight="400"/>
  <g stroke="#000000" stroke-width="1" font-family="Ubuntu" fill="none" stroke-linejoin="bevel" transform="matrix(1,0,0,1,1485,1050)" stroke-linecap="square" font-size="38.8056" font-style="normal" stroke-opacity="1" font-weight="400"/>
  <g stroke="none" font-family="Ubuntu" fill="#ffffff" fill-opacity="1" transform="matrix(1,0,0,1,1485,1050)" font-size="38.8056" font-style="normal" font-weight="400">
   <path vector-effect="non-scaling-stroke" fill-rule="evenodd" d="M313.449,293.449 C313.449,304.495 304.495,313.449 293.449,313.449 C282.404,313.449 273.449,304.495 273.449,293.449 C273.449,282.404 282.404,273.449 293.449,273.449 C304.495,273.449 313.449,282.404 313.449,293.449 "/>
  </g>
  <g stroke="#000000" stroke-width="1" font-family="Ubuntu" fill="none" stroke-linejoin="bevel" transform="matrix(1,0,0,1,1485,1050)" stroke-linecap="square" font-size="38.8056" font-style="normal" stroke-opacity="1" font-weight="400"/>
  <g stroke="#000000" stroke-width="1" font-family="Ubuntu" fill="none" stroke-linejoin="bevel" transform="matrix(1,0,0,1,1485,1050)" stroke-linecap="square" font-size="38.8056" font-style="normal" stroke-opacity="1" font-weight="400"/>
  <g stroke="#000000" stroke-width="1" font-family="Ubuntu" fill="none" stroke-linejoin="bevel" transform="matrix(1,0,0,1,1485,1050)" stroke-linecap="square" font-size="38.8056" font-style="normal" stroke-opacity="1" font-weight="400"/>
  <g stroke="#000000" stroke-width="1" font-family="Ubuntu" fill="none" stroke-linejoin="bevel" transform="matrix(1,0,0,1,0,0)" stroke-linecap="square" font-size="38.8056" font-style="normal" stroke-opacity="1" font-weight="400"/>
  <g stroke="#000000" stroke-width="1" font-family="Ubuntu" fill="none" stroke-linejoin="bevel" transform="matrix(1,0,0,1,1485,1050)" stroke-linecap="square" font-size="38.8056" font-style="normal" stroke-opacity="1" font-weight="400"/>
  <g stroke="#000000" stroke-width="1" font-family="Ubuntu" fill="none" stroke-linejoin="bevel" transform="matrix(1,0,0,1,1485,1050)" stroke-linecap="square" font-size="38.8056" font-style="normal" stroke-opacity="1" font-weight="400"/>
  <g stroke="none" font-family="Ubuntu" fill="#ffffff" fill-opacity="1" transform="matrix(1,0,0,1,1485,1050)" font-size="38.8056" font-style="normal" font-weight="400">
   <path vector-effect="non-scaling-stroke" fill-rule="evenodd" d="M313.449,-293.449 C313.449,-282.404 304.495,-273.449 293.449,-273.449 C282.404,-273.449 273.449,-282.404 273.449,-293.449 C273.449,-304.495 282.404,-313.449 293.449,-313.449 C304.495,-313.449 313.449,-304.495 313.449,-293.449 "/>
  </g>
  <g stroke="#000000" stroke-width="1" font-family="Ubuntu" fill="none" stroke-linejoin="bevel" transform="matrix(1,0,0,1,1485,1050)" stroke-linecap="square" font-size="38.8056" font-style="normal" stroke-opacity="1" font-weight="400"/>
  <g stroke="#000000" stroke-width="1" font-family="Ubuntu" fill="none" stroke-linejoin="bevel" transform="matrix(1,0,0,1,1485,1050)" stroke-linecap="square" font-size="38.8056" font-style="normal" stroke-opacity="1" font-weight="400"/>
  <g stroke="#000000" stroke-width="1" font-family="Ubuntu" fill="none" stroke-linejoin="bevel" transform="matrix(1,0,0,1,1485,1050)" stroke-linecap="square" font-size="38.8056" font-style="normal" stroke-opacity="1" font-weight="400"/>
  <g stroke="#000000" stroke-width="1" font-family="Ubuntu" fill="none" stroke-linejoin="bevel" transform="matrix(1,0,0,1,0,0)" stroke-linecap="square" font-size="38.8056" font-style="normal" stroke-opacity="1" font-weight="400"/>
  <g stroke="#000000" stroke-width="1" font-family="Ubuntu" fill="none" stroke-linejoin="bevel" transform="matrix(1,0,0,1,1485,1050)" stroke-linecap="square" font-size="38.8056" font-style="normal" stroke-opacity="1" font-weight="400"/>
  <g stroke="#000000" stroke-width="1" font-family="Ubuntu" fill="none" stroke-linejoin="bevel" transform="matrix(1,0,0,1,1485,1050)" stroke-linecap="square" font-size="38.8056" font-style="normal" stroke-opacity="1" font-weight="400"/>
  <g stroke="#000000" stroke-width="7" font-family="Ubuntu" fill="none" stroke-linejoin="bevel" transform="matrix(1,0,0,1,1485,1050)" stroke-linecap="round" font-size="38.8056" font-style="normal" stroke-opacity="1" font-weight="400">
   <path vector-effect="none" fill-rule="evenodd" d="M500,0 C500,276.142 276.142,500 0,500 C-276.142,500 -500,276.142 -500,0 C-500,-276.142 -276.142,-500 0,-500 C276.142,-500 500,-276.142 500,0 "/>
  </g>
  <g stroke="#000000" stroke-width="1" font-family="Ubuntu" fill="none" stroke-linejoin="bevel" transform="matrix(1,0,0,1,1485,1050)" stroke-linecap="square" font-size="38.8056" font-style="normal" stroke-opacity="1" font-weight="400"/>
  <g stroke="#000000" stroke-width="1" font-family="Ubuntu" fill="none" stroke-linejoin="bevel" transform="matrix(1,0,0,1,1485,1050)" stroke-linecap="square" font-size="38.8056" font-style="normal" stroke-opacity="1" font-weight="400"/>
  <g stroke="#000000" stroke-width="7" font-family="Ubuntu" fill="none" stroke-linejoin="bevel" transform="matrix(1,0,0,1,1485,1050)" stroke-linecap="round" font-size="38.8056" font-style="normal" stroke-opacity="1" font-weight="400">
   <path vector-effect="none" fill-rule="evenodd" d="M-273.449,293.449 C-273.449,304.495 -282.404,313.449 -293.449,313.449 C-304.495,313.449 -313.449,304.495 -313.449,293.449 C-313.449,282.404 -304.495,273.449 -293.449,273.449 C-282.404,273.449 -273.449,282.404 -273.449,293.449 "/>
  </g>
  <g stroke="#000000" stroke-width="1" font-family="Ubuntu" fill="none" stroke-linejoin="bevel" transform="matrix(1,0,0,1,1485,1050)" stroke-linecap="square" font-size="38.8056" font-style="normal" stroke-opacity="1" font-weight="400"/>
  <g stroke="#000000" stroke-width="1" font-family="Ubuntu" fill="none" stroke-linejoin="bevel" transform="matrix(1,0,0,1,1485,1050)" stroke-linecap="square" font-size="38.8056" font-style="normal" stroke-opacity="1" font-weight="400"/>
  <g stroke="#000000" stroke-width="7" font-family="Ubuntu" fill="none" stroke-linejoin="bevel" transform="matrix(1,0,0,1,1485,1050)" stroke-linecap="round" font-size="38.8056" font-style="normal" stroke-opacity="1" font-weight="400">
   <path vector-effect="none" fill-rule="evenodd" d="M370,0 C370,204.345 204.345,370 0,370 C-204.345,370 -370,204.345 -370,0 C-370,-204.345 -204.345,-370 0,-370 C204.345,-370 370,-204.345 370,0 "/>
  </g>
  <g stroke="#000000" stroke-width="1" font-family="Ubuntu" fill="none" stroke-linejoin="bevel" transform="matrix(1,0,0,1,1485,1050)" stroke-linecap="square" font-size="38.8056" font-style="normal" stroke-opacity="1" font-weight="400"/>
  <g stroke="#000000" stroke-width="1" font-family="Ubuntu" fill="none" stroke-linejoin="bevel" transform="matrix(1,0,0,1,1485,1050)" stroke-linecap="square" font-size="38.8056" font-style="normal" stroke-opacity="1" font-weight="400"/>
  <g stroke="#000000" stroke-width="7" font-family="Ubuntu" fill="none" stroke-linejoin="bevel" transform="matrix(1,0,0,1,1485,1050)" stroke-linecap="round" font-size="38.8056" font-style="normal" stroke-opacity="1" font-weight="400">
   <path vector-effect="none" fill-rule="evenodd" d="M-273.449,-293.449 C-273.449,-282.404 -282.404,-273.449 -293.449,-273.449 C-304.495,-273.449 -313.449,-282.404 -313.449,-293.449 C-313.449,-304.495 -304.495,-313.449 -293.449,-313.449 C-282.404,-313.449 -273.449,-304.495 -273.449,-293.449 "/>
  </g>
  <g stroke="#000000" stroke-width="1" font-family="Ubuntu" fill="none" stroke-linejoin="bevel" transform="matrix(1,0,0,1,1485,1050)" stroke-linecap="square" font-size="38.8056" font-style="normal" stroke-opacity="1" font-weight="400"/>
  <g stroke="#000000" stroke-width="1" font-family="Ubuntu" fill="none" stroke-linejoin="bevel" transform="matrix(1,0,0,1,1485,1050)" stroke-linecap="square" font-size="38.8056" font-style="normal" stroke-opacity="1" font-weight="400"/>
  <g stroke="#000000" stroke-width="7" font-family="Ubuntu" fill="none" stroke-linejoin="bevel" transform="matrix(1,0,0,1,1485,1050)" stroke-linecap="round" font-size="38.8056" font-style="normal" stroke-opacity="1" font-weight="400">
   <path vector-effect="none" fill-rule="evenodd" d="M313.449,-293.449 C313.449,-282.404 304.495,-273.449 293.449,-273.449 C282.404,-273.449 273.449,-282.404 273.449,-293.449 C273.449,-304.495 282.404,-313.449 293.449,-313.449 C304.495,-313.449 313.449,-304.495 313.449,-293.449 "/>
  </g>
  <g stroke="#000000" stroke-width="1" font-family="Ubuntu" fill="none" stroke-linejoin="bevel" transform="matrix(1,0,0,1,1485,1050)" stroke-linecap="square" font-size="38.8056" font-style="normal" stroke-opacity="1" font-weight="400"/>
  <g stroke="#000000" stroke-width="1" font-family="Ubuntu" fill="none" stroke-linejoin="bevel" transform="matrix(1,0,0,1,1485,1050)" stroke-linecap="square" font-size="38.8056" font-style="normal" stroke-opacity="1" font-weight="400"/>
  <g stroke="#000000" stroke-width="7" font-family="Ubuntu" fill="none" stroke-linejoin="bevel" transform="matrix(1,0,0,1,1485,1050)" stroke-linecap="round" font-size="38.8056" font-style="normal" stroke-opacity="1" font-weight="400">
   <path vector-effect="none" fill-rule="evenodd" d="M313.449,293.449 C313.449,304.495 304.495,313.449 293.449,313.449 C282.404,313.449 273.449,304.495 273.449,293.449 C273.449,282.404 282.404,273.449 293.449,273.449 C304.495,273.449 313.449,282.404 313.449,293.449 "/>
  </g>
  <g stroke="#000000" stroke-width="1" font-family="Ubuntu" fill="none" stroke-linejoin="bevel" transform="matrix(1,0,0,1,1485,1050)" stroke-linecap="square" font-size="38.8056" font-style="normal" stroke-opacity="1" font-weight="400"/>
  <g stroke="#000000" stroke-width="1" font-family="Ubuntu" fill="none" stroke-linejoin="bevel" transform="matrix(1,0,0,1,1485,1050)" stroke-linecap="square" font-size="38.8056" font-style="normal" stroke-opacity="1" font-weight="400"/>
  <g stroke="#000000" stroke-width="3.5" font-family="Ubuntu" fill="#000000" fill-opacity="1" stroke-linejoin="bevel" transform="matrix(1,0,0,1,1485,1050)" stroke-linecap="round" font-size="38.8056" font-style="normal" stroke-opacity="1" font-weight="400">
   <path vector-effect="none" fill-rule="evenodd" d="M0,42 L0,-42 M42,0 L-42,0"/>
  </g>
  <g stroke="#000000" stroke-width="1" font-family="Ubuntu" fill="none" stroke-linejoin="bevel" transform="matrix(1,0,0,1,1485,1050)" stroke-linecap="square" font-size="38.8056" font-style="normal" stroke-opacity="1" font-weight="400"/>
  <g stroke="#000000" stroke-width="1" font-family="Ubuntu" fill="none" stroke-linejoin="bevel" transform="matrix(1,0,0,1,1191.55,1343.45)" stroke-linecap="square" font-size="38.8056" font-style="normal" stroke-opacity="1" font-weight="400"/>
  <g stroke="#000000" stroke-width="3.5" font-family="Ubuntu" fill="#000000" fill-opacity="1" stroke-linejoin="bevel" transform="matrix(1,0,0,1,1191.55,1343.45)" stroke-linecap="round" font-size="38.8056" font-style="normal" stroke-opacity="1" font-weight="400">
   <path vector-effect="none" fill-rule="evenodd" d="M0,42 L0,-42 M42,0 L-42,0"/>
  </g>
  <g stroke="#000000" stroke-width="1" font-family="Ubuntu" fill="none" stroke-linejoin="bevel" transform="matrix(1,0,0,1,1191.55,1343.45)" stroke-linecap="square" font-size="38.8056" font-style="normal" stroke-opacity="1" font-weight="400"/>
  <g stroke="#000000" stroke-width="1" font-family="Ubuntu" fill="none" stroke-linejoin="bevel" transform="matrix(1,0,0,1,1191.55,756.551)" stroke-linecap="square" font-size="38.8056" font-style="normal" stroke-opacity="1" font-weight="400"/>
  <g stroke="#000000" stroke-width="3.5" font-family="Ubuntu" fill="#000000" fill-opacity="1" stroke-linejoin="bevel" transform="matrix(1,0,0,1,1191.55,756.551)" stroke-linecap="round" font-size="38.8056" font-style="normal" stroke-opacity="1" font-weight="400">
   <path vector-effect="none" fill-rule="evenodd" d="M0,42 L0,-42 M42,0 L-42,0"/>
  </g>
  <g stroke="#000000" stroke-width="1" font-family="Ubuntu" fill="none" stroke-linejoin="bevel" transform="matrix(1,0,0,1,1191.55,756.551)" stroke-linecap="square" font-size="38.8056" font-style="normal" stroke-opacity="1" font-weight="400"/>
  <g stroke="#000000" stroke-width="1" font-family="Ubuntu" fill="none" stroke-linejoin="bevel" transform="matrix(1,0,0,1,1778.45,756.551)" stroke-linecap="square" font-size="38.8056" font-style="normal" stroke-opacity="1" font-weight="400"/>
  <g stroke="#000000" stroke-width="3.5" font-family="Ubuntu" fill="#000000" fill-opacity="1" stroke-linejoin="bevel" transform="matrix(1,0,0,1,1778.45,756.551)" stroke-linecap="round" font-size="38.8056" font-style="normal" stroke-opacity="1" font-weight="400">
   <path vector-effect="none" fill-rule="evenodd" d="M0,42 L0,-42 M42,0 L-42,0"/>
  </g>
  <g stroke="#000000" stroke-width="1" font-family="Ubuntu" fill="none" stroke-linejoin="bevel" transform="matrix(1,0,0,1,1778.45,756.551)" stroke-linecap="square" font-size="38.8056" font-style="normal" stroke-opacity="1" font-weight="400"/>
  <g stroke="#000000" stroke-width="1" font-family="Ubuntu" fill="none" stroke-linejoin="bevel" transform="matrix(1,0,0,1,1778.45,1343.45)" stroke-linecap="square" font-size="38.8056" font-style="normal" stroke-opacity="1" font-weight="400"/>
  <g stroke="#000000" stroke-width="3.5" font-family="Ubuntu" fill="#000000" fill-opacity="1" stroke-linejoin="bevel" transform="matrix(1,0,0,1,1778.45,1343.45)" stroke-linecap="round" font-size="38.8056" font-style="normal" stroke-opacity="1" font-weight="400">
   <path vector-effect="none" fill-rule="evenodd" d="M0,42 L0,-42 M42,0 L-42,0"/>
  </g>
  <g stroke="#000000" stroke-width="1" font-family="Ubuntu" fill="none" stroke-linejoin="bevel" transform="matrix(1,0,0,1,1778.45,1343.45)" stroke-linecap="square" font-size="38.8056" font-style="normal" stroke-opacity="1" font-weight="400"/>
  <g stroke="#000000" stroke-width="1" font-family="Ubuntu" fill="none" stroke-linejoin="bevel" transform="matrix(1,0,0,1,0,0)" stroke-linecap="square" font-size="38.8056" font-style="normal" stroke-opacity="1" font-weight="400"/>
 </g>
</svg>
