<?xml version='1.0' encoding='UTF-8' standalone='no'?>
<svg version="1.2" width="297mm" xmlns="http://www.w3.org/2000/svg" xmlns:xlink="http://www.w3.org/1999/xlink" baseProfile="tiny" viewBox="0 0 2970 2100" height="210mm">
 <title>FreeCAD SVG Export</title>
 <desc>Drawing page: Page007 exported from FreeCAD document: j__rviradio_radio</desc>
 <defs/>
 <g id="Page007" fill-rule="evenodd" stroke-width="1" stroke-linecap="square" fill="none" stroke="black" stroke-linejoin="bevel">
  <g font-family="Ubuntu" stroke-width="1" font-style="normal" stroke-linecap="square" font-size="38.8056" transform="matrix(1,0,0,1,0,0)" fill="none" stroke="#000000" font-weight="400" stroke-opacity="1" stroke-linejoin="bevel"/>
  <g font-family="Ubuntu" stroke-width="1" font-style="normal" stroke-linecap="square" font-size="38.8056" transform="matrix(1,0,0,1,0,2100)" fill="none" stroke="#000000" font-weight="400" stroke-opacity="1" stroke-linejoin="bevel"/>
  <g font-family="Ubuntu" stroke-width="1" font-style="normal" stroke-linecap="square" font-size="38.8056" transform="matrix(1,0,0,1,0,2100)" fill="none" stroke="#000000" font-weight="400" stroke-opacity="1" stroke-linejoin="bevel"/>
  <g font-family="Ubuntu" stroke-width="1" font-style="normal" stroke-linecap="square" font-size="38.8056" transform="matrix(2.82319,0,0,2.82258,0,0)" fill="none" stroke="#000000" font-weight="400" stroke-opacity="1" stroke-linejoin="bevel"/>
  <g font-family="Ubuntu" stroke-width="1" font-style="normal" stroke-linecap="square" font-size="38.8056" transform="matrix(2.82319,0,0,2.82258,0,0)" fill="none" stroke="#000000" font-weight="400" stroke-opacity="1" stroke-linejoin="bevel"/>
  <g font-family="Ubuntu" stroke-width="1" font-style="normal" stroke-linecap="square" font-size="38.8056" transform="matrix(2.82319,0,0,2.82258,0,0)" fill="none" stroke="#000000" font-weight="400" stroke-opacity="1" stroke-linejoin="bevel"/>
  <g font-family="Ubuntu" stroke-width="1" font-style="normal" stroke-linecap="square" font-size="38.8056" transform="matrix(2.82319,0,0,2.82258,0,0)" fill="none" stroke="#000000" font-weight="400" stroke-opacity="1" stroke-linejoin="bevel"/>
  <g font-family="Ubuntu" stroke-width="1" font-style="normal" stroke-linecap="square" font-size="38.8056" transform="matrix(1,0,0,1,0,0)" fill="none" stroke="#000000" font-weight="400" stroke-opacity="1" stroke-linejoin="bevel"/>
  <g font-family="Ubuntu" stroke-width="1" font-style="normal" stroke-linecap="square" font-size="38.8056" transform="matrix(2.82319,0,0,2.82258,0,0)" fill="none" stroke="#000000" font-weight="400" stroke-opacity="1" stroke-linejoin="bevel"/>
  <g font-family="Ubuntu" stroke-width="1" font-style="normal" stroke-linecap="square" font-size="38.8056" transform="matrix(1,0,0,1,1485,1050)" fill="none" stroke="#000000" font-weight="400" stroke-opacity="1" stroke-linejoin="bevel"/>
  <g font-family="Ubuntu" stroke-width="1" font-style="normal" stroke-linecap="square" font-size="38.8056" transform="matrix(1,0,0,1,1485,1050)" fill="none" stroke="#000000" font-weight="400" stroke-opacity="1" stroke-linejoin="bevel"/>
  <g font-family="Ubuntu" stroke-width="1" font-style="normal" stroke-linecap="square" font-size="38.8056" transform="matrix(1,0,0,1,1481,1442.5)" fill="none" stroke="#000000" font-weight="400" stroke-opacity="1" stroke-linejoin="bevel"/>
  <g font-family="Ubuntu" stroke-width="1" font-style="normal" stroke-linecap="square" font-size="38.8056" transform="matrix(0.353,0,0,0.353,1473,1502.86)" fill="none" stroke="#000000" font-weight="400" stroke-opacity="1" stroke-linejoin="bevel"/>
  <g font-family="Ubuntu" stroke-width="1" font-style="normal" stroke-linecap="square" font-size="38.8056" transform="matrix(0.353,0,0,0.353,1473,1502.86)" fill="none" stroke="#000000" font-weight="400" stroke-opacity="1" stroke-linejoin="bevel"/>
  <g font-family="Ubuntu" stroke-width="1" font-style="normal" stroke-linecap="square" font-size="38.8056" transform="matrix(0.353,0,0,0.353,1473,1502.86)" fill="none" stroke="#000000" font-weight="400" stroke-opacity="1" stroke-linejoin="bevel"/>
  <g font-family="Ubuntu" stroke-width="1" font-style="normal" stroke-linecap="square" font-size="38.8056" transform="matrix(0.353,0,0,0.353,1473,1502.86)" fill="none" stroke="#000000" font-weight="400" stroke-opacity="1" stroke-linejoin="bevel"/>
  <g font-family="Ubuntu" stroke-width="1" font-style="normal" stroke-linecap="square" font-size="38.8056" transform="matrix(1,0,0,1,0,0)" fill="none" stroke="#000000" font-weight="400" stroke-opacity="1" stroke-linejoin="bevel"/>
  <g font-family="Ubuntu" stroke-width="1" font-style="normal" stroke-linecap="square" font-size="38.8056" transform="matrix(0.353,0,0,0.353,1473,1502.86)" fill="none" stroke="#000000" font-weight="400" stroke-opacity="1" stroke-linejoin="bevel"/>
  <g font-family="Ubuntu" stroke-width="1" font-style="normal" stroke-linecap="square" font-size="38.8056" transform="matrix(0.353,0,0,0.353,1473,1502.86)" fill="none" stroke="#000000" font-weight="400" stroke-opacity="1" stroke-linejoin="bevel"/>
  <g font-family="Ubuntu" stroke-width="1" font-style="normal" stroke-linecap="square" font-size="38.8056" transform="matrix(1,0,0,1,1481,1442.5)" fill="none" stroke="#000000" font-weight="400" stroke-opacity="1" stroke-linejoin="bevel"/>
  <g font-family="Ubuntu" stroke-width="1" font-style="normal" stroke-linecap="square" font-size="38.8056" transform="matrix(1,0,0,1,1485,1050)" fill="none" stroke="#000000" font-weight="400" stroke-opacity="1" stroke-linejoin="bevel"/>
  <g font-family="Ubuntu" font-style="normal" font-size="38.8056" transform="matrix(1,0,0,1,1485,1050)" fill="#ffffff" stroke="none" font-weight="400" fill-opacity="1">
   <path fill-rule="evenodd" d="M510,-370 L510,370 L-510,370 L-510,-370 L510,-370" vector-effect="non-scaling-stroke"/>
  </g>
  <g font-family="Ubuntu" stroke-width="1" font-style="normal" stroke-linecap="square" font-size="38.8056" transform="matrix(1,0,0,1,1485,1050)" fill="none" stroke="#000000" font-weight="400" stroke-opacity="1" stroke-linejoin="bevel"/>
  <g font-family="Ubuntu" stroke-width="1" font-style="normal" stroke-linecap="square" font-size="38.8056" transform="matrix(1,0,0,1,1485,1050)" fill="none" stroke="#000000" font-weight="400" stroke-opacity="1" stroke-linejoin="bevel"/>
  <g font-family="Ubuntu" stroke-width="1" font-style="normal" stroke-linecap="square" font-size="38.8056" transform="matrix(1,0,0,1,1485,1050)" fill="none" stroke="#000000" font-weight="400" stroke-opacity="1" stroke-linejoin="bevel"/>
  <g font-family="Ubuntu" stroke-width="1" font-style="normal" stroke-linecap="square" font-size="38.8056" transform="matrix(1,0,0,1,0,0)" fill="none" stroke="#000000" font-weight="400" stroke-opacity="1" stroke-linejoin="bevel"/>
  <g font-family="Ubuntu" stroke-width="1" font-style="normal" stroke-linecap="square" font-size="38.8056" transform="matrix(1,0,0,1,1485,1050)" fill="none" stroke="#000000" font-weight="400" stroke-opacity="1" stroke-linejoin="bevel"/>
  <g font-family="Ubuntu" stroke-width="1" font-style="normal" stroke-linecap="square" font-size="38.8056" transform="matrix(1,0,0,1,1485,1050)" fill="none" stroke="#000000" font-weight="400" stroke-opacity="1" stroke-linejoin="bevel"/>
  <g font-family="Ubuntu" font-style="normal" font-size="38.8056" transform="matrix(1,0,0,1,1485,1050)" fill="#ffffff" stroke="none" font-weight="400" fill-opacity="1">
   <path fill-rule="evenodd" d="M400,260 L400,-260 L-400,-260 L-400,260 L400,260" vector-effect="non-scaling-stroke"/>
  </g>
  <g font-family="Ubuntu" stroke-width="1" font-style="normal" stroke-linecap="square" font-size="38.8056" transform="matrix(1,0,0,1,1485,1050)" fill="none" stroke="#000000" font-weight="400" stroke-opacity="1" stroke-linejoin="bevel"/>
  <g font-family="Ubuntu" stroke-width="1" font-style="normal" stroke-linecap="square" font-size="38.8056" transform="matrix(1,0,0,1,1485,1050)" fill="none" stroke="#000000" font-weight="400" stroke-opacity="1" stroke-linejoin="bevel"/>
  <g font-family="Ubuntu" stroke-width="1" font-style="normal" stroke-linecap="square" font-size="38.8056" transform="matrix(1,0,0,1,1485,1050)" fill="none" stroke="#000000" font-weight="400" stroke-opacity="1" stroke-linejoin="bevel"/>
  <g font-family="Ubuntu" stroke-width="1" font-style="normal" stroke-linecap="square" font-size="38.8056" transform="matrix(1,0,0,1,0,0)" fill="none" stroke="#000000" font-weight="400" stroke-opacity="1" stroke-linejoin="bevel"/>
  <g font-family="Ubuntu" stroke-width="1" font-style="normal" stroke-linecap="square" font-size="38.8056" transform="matrix(1,0,0,1,1485,1050)" fill="none" stroke="#000000" font-weight="400" stroke-opacity="1" stroke-linejoin="bevel"/>
  <g font-family="Ubuntu" stroke-width="1" font-style="normal" stroke-linecap="square" font-size="38.8056" transform="matrix(1,0,0,1,1485,1050)" fill="none" stroke="#000000" font-weight="400" stroke-opacity="1" stroke-linejoin="bevel"/>
  <g font-family="Ubuntu" font-style="normal" font-size="38.8056" transform="matrix(1,0,0,1,1485,1050)" fill="#ffffff" stroke="none" font-weight="400" fill-opacity="1">
   <path fill-rule="evenodd" d="M362,-315 C362,-303.954 353.046,-295 342,-295 C330.954,-295 322,-303.954 322,-315 C322,-326.046 330.954,-335 342,-335 C353.046,-335 362,-326.046 362,-315 " vector-effect="non-scaling-stroke"/>
  </g>
  <g font-family="Ubuntu" stroke-width="1" font-style="normal" stroke-linecap="square" font-size="38.8056" transform="matrix(1,0,0,1,1485,1050)" fill="none" stroke="#000000" font-weight="400" stroke-opacity="1" stroke-linejoin="bevel"/>
  <g font-family="Ubuntu" stroke-width="1" font-style="normal" stroke-linecap="square" font-size="38.8056" transform="matrix(1,0,0,1,1485,1050)" fill="none" stroke="#000000" font-weight="400" stroke-opacity="1" stroke-linejoin="bevel"/>
  <g font-family="Ubuntu" stroke-width="1" font-style="normal" stroke-linecap="square" font-size="38.8056" transform="matrix(1,0,0,1,1485,1050)" fill="none" stroke="#000000" font-weight="400" stroke-opacity="1" stroke-linejoin="bevel"/>
  <g font-family="Ubuntu" stroke-width="1" font-style="normal" stroke-linecap="square" font-size="38.8056" transform="matrix(1,0,0,1,0,0)" fill="none" stroke="#000000" font-weight="400" stroke-opacity="1" stroke-linejoin="bevel"/>
  <g font-family="Ubuntu" stroke-width="1" font-style="normal" stroke-linecap="square" font-size="38.8056" transform="matrix(1,0,0,1,1485,1050)" fill="none" stroke="#000000" font-weight="400" stroke-opacity="1" stroke-linejoin="bevel"/>
  <g font-family="Ubuntu" stroke-width="1" font-style="normal" stroke-linecap="square" font-size="38.8056" transform="matrix(1,0,0,1,1485,1050)" fill="none" stroke="#000000" font-weight="400" stroke-opacity="1" stroke-linejoin="bevel"/>
  <g font-family="Ubuntu" font-style="normal" font-size="38.8056" transform="matrix(1,0,0,1,1485,1050)" fill="#ffffff" stroke="none" font-weight="400" fill-opacity="1">
   <path fill-rule="evenodd" d="M362,315 C362,326.046 353.046,335 342,335 C330.954,335 322,326.046 322,315 C322,303.954 330.954,295 342,295 C353.046,295 362,303.954 362,315 " vector-effect="non-scaling-stroke"/>
  </g>
  <g font-family="Ubuntu" stroke-width="1" font-style="normal" stroke-linecap="square" font-size="38.8056" transform="matrix(1,0,0,1,1485,1050)" fill="none" stroke="#000000" font-weight="400" stroke-opacity="1" stroke-linejoin="bevel"/>
  <g font-family="Ubuntu" stroke-width="1" font-style="normal" stroke-linecap="square" font-size="38.8056" transform="matrix(1,0,0,1,1485,1050)" fill="none" stroke="#000000" font-weight="400" stroke-opacity="1" stroke-linejoin="bevel"/>
  <g font-family="Ubuntu" stroke-width="1" font-style="normal" stroke-linecap="square" font-size="38.8056" transform="matrix(1,0,0,1,1485,1050)" fill="none" stroke="#000000" font-weight="400" stroke-opacity="1" stroke-linejoin="bevel"/>
  <g font-family="Ubuntu" stroke-width="1" font-style="normal" stroke-linecap="square" font-size="38.8056" transform="matrix(1,0,0,1,0,0)" fill="none" stroke="#000000" font-weight="400" stroke-opacity="1" stroke-linejoin="bevel"/>
  <g font-family="Ubuntu" stroke-width="1" font-style="normal" stroke-linecap="square" font-size="38.8056" transform="matrix(1,0,0,1,1485,1050)" fill="none" stroke="#000000" font-weight="400" stroke-opacity="1" stroke-linejoin="bevel"/>
  <g font-family="Ubuntu" stroke-width="1" font-style="normal" stroke-linecap="square" font-size="38.8056" transform="matrix(1,0,0,1,1485,1050)" fill="none" stroke="#000000" font-weight="400" stroke-opacity="1" stroke-linejoin="bevel"/>
  <g font-family="Ubuntu" font-style="normal" font-size="38.8056" transform="matrix(1,0,0,1,1485,1050)" fill="#ffffff" stroke="none" font-weight="400" fill-opacity="1">
   <path fill-rule="evenodd" d="M-322,-315 C-322,-303.954 -330.954,-295 -342,-295 C-353.046,-295 -362,-303.954 -362,-315 C-362,-326.046 -353.046,-335 -342,-335 C-330.954,-335 -322,-326.046 -322,-315 " vector-effect="non-scaling-stroke"/>
  </g>
  <g font-family="Ubuntu" stroke-width="1" font-style="normal" stroke-linecap="square" font-size="38.8056" transform="matrix(1,0,0,1,1485,1050)" fill="none" stroke="#000000" font-weight="400" stroke-opacity="1" stroke-linejoin="bevel"/>
  <g font-family="Ubuntu" stroke-width="1" font-style="normal" stroke-linecap="square" font-size="38.8056" transform="matrix(1,0,0,1,1485,1050)" fill="none" stroke="#000000" font-weight="400" stroke-opacity="1" stroke-linejoin="bevel"/>
  <g font-family="Ubuntu" stroke-width="1" font-style="normal" stroke-linecap="square" font-size="38.8056" transform="matrix(1,0,0,1,1485,1050)" fill="none" stroke="#000000" font-weight="400" stroke-opacity="1" stroke-linejoin="bevel"/>
  <g font-family="Ubuntu" stroke-width="1" font-style="normal" stroke-linecap="square" font-size="38.8056" transform="matrix(1,0,0,1,0,0)" fill="none" stroke="#000000" font-weight="400" stroke-opacity="1" stroke-linejoin="bevel"/>
  <g font-family="Ubuntu" stroke-width="1" font-style="normal" stroke-linecap="square" font-size="38.8056" transform="matrix(1,0,0,1,1485,1050)" fill="none" stroke="#000000" font-weight="400" stroke-opacity="1" stroke-linejoin="bevel"/>
  <g font-family="Ubuntu" stroke-width="1" font-style="normal" stroke-linecap="square" font-size="38.8056" transform="matrix(1,0,0,1,1485,1050)" fill="none" stroke="#000000" font-weight="400" stroke-opacity="1" stroke-linejoin="bevel"/>
  <g font-family="Ubuntu" font-style="normal" font-size="38.8056" transform="matrix(1,0,0,1,1485,1050)" fill="#ffffff" stroke="none" font-weight="400" fill-opacity="1">
   <path fill-rule="evenodd" d="M-322,315 C-322,326.046 -330.954,335 -342,335 C-353.046,335 -362,326.046 -362,315 C-362,303.954 -353.046,295 -342,295 C-330.954,295 -322,303.954 -322,315 " vector-effect="non-scaling-stroke"/>
  </g>
  <g font-family="Ubuntu" stroke-width="1" font-style="normal" stroke-linecap="square" font-size="38.8056" transform="matrix(1,0,0,1,1485,1050)" fill="none" stroke="#000000" font-weight="400" stroke-opacity="1" stroke-linejoin="bevel"/>
  <g font-family="Ubuntu" stroke-width="1" font-style="normal" stroke-linecap="square" font-size="38.8056" transform="matrix(1,0,0,1,1485,1050)" fill="none" stroke="#000000" font-weight="400" stroke-opacity="1" stroke-linejoin="bevel"/>
  <g font-family="Ubuntu" stroke-width="1" font-style="normal" stroke-linecap="square" font-size="38.8056" transform="matrix(1,0,0,1,1485,1050)" fill="none" stroke="#000000" font-weight="400" stroke-opacity="1" stroke-linejoin="bevel"/>
  <g font-family="Ubuntu" stroke-width="1" font-style="normal" stroke-linecap="square" font-size="38.8056" transform="matrix(1,0,0,1,0,0)" fill="none" stroke="#000000" font-weight="400" stroke-opacity="1" stroke-linejoin="bevel"/>
  <g font-family="Ubuntu" stroke-width="1" font-style="normal" stroke-linecap="square" font-size="38.8056" transform="matrix(1,0,0,1,1485,1050)" fill="none" stroke="#000000" font-weight="400" stroke-opacity="1" stroke-linejoin="bevel"/>
  <g font-family="Ubuntu" stroke-width="1" font-style="normal" stroke-linecap="square" font-size="38.8056" transform="matrix(1,0,0,1,1485,1050)" fill="none" stroke="#000000" font-weight="400" stroke-opacity="1" stroke-linejoin="bevel"/>
  <g font-family="Ubuntu" stroke-width="7" font-style="normal" stroke-linecap="round" font-size="38.8056" transform="matrix(1,0,0,1,1485,1050)" fill="none" stroke="#000000" font-weight="400" stroke-opacity="1" stroke-linejoin="bevel">
   <path fill-rule="evenodd" d="M-510,-370 L510,-370" vector-effect="none"/>
  </g>
  <g font-family="Ubuntu" stroke-width="1" font-style="normal" stroke-linecap="square" font-size="38.8056" transform="matrix(1,0,0,1,1485,1050)" fill="none" stroke="#000000" font-weight="400" stroke-opacity="1" stroke-linejoin="bevel"/>
  <g font-family="Ubuntu" stroke-width="1" font-style="normal" stroke-linecap="square" font-size="38.8056" transform="matrix(1,0,0,1,1485,1050)" fill="none" stroke="#000000" font-weight="400" stroke-opacity="1" stroke-linejoin="bevel"/>
  <g font-family="Ubuntu" stroke-width="7" font-style="normal" stroke-linecap="round" font-size="38.8056" transform="matrix(1,0,0,1,1485,1050)" fill="none" stroke="#000000" font-weight="400" stroke-opacity="1" stroke-linejoin="bevel">
   <path fill-rule="evenodd" d="M-510,370 L-510,-370" vector-effect="none"/>
  </g>
  <g font-family="Ubuntu" stroke-width="1" font-style="normal" stroke-linecap="square" font-size="38.8056" transform="matrix(1,0,0,1,1485,1050)" fill="none" stroke="#000000" font-weight="400" stroke-opacity="1" stroke-linejoin="bevel"/>
  <g font-family="Ubuntu" stroke-width="1" font-style="normal" stroke-linecap="square" font-size="38.8056" transform="matrix(1,0,0,1,1485,1050)" fill="none" stroke="#000000" font-weight="400" stroke-opacity="1" stroke-linejoin="bevel"/>
  <g font-family="Ubuntu" stroke-width="7" font-style="normal" stroke-linecap="round" font-size="38.8056" transform="matrix(1,0,0,1,1485,1050)" fill="none" stroke="#000000" font-weight="400" stroke-opacity="1" stroke-linejoin="bevel">
   <path fill-rule="evenodd" d="M510,-370 L510,370" vector-effect="none"/>
  </g>
  <g font-family="Ubuntu" stroke-width="1" font-style="normal" stroke-linecap="square" font-size="38.8056" transform="matrix(1,0,0,1,1485,1050)" fill="none" stroke="#000000" font-weight="400" stroke-opacity="1" stroke-linejoin="bevel"/>
  <g font-family="Ubuntu" stroke-width="1" font-style="normal" stroke-linecap="square" font-size="38.8056" transform="matrix(1,0,0,1,1485,1050)" fill="none" stroke="#000000" font-weight="400" stroke-opacity="1" stroke-linejoin="bevel"/>
  <g font-family="Ubuntu" stroke-width="7" font-style="normal" stroke-linecap="round" font-size="38.8056" transform="matrix(1,0,0,1,1485,1050)" fill="none" stroke="#000000" font-weight="400" stroke-opacity="1" stroke-linejoin="bevel">
   <path fill-rule="evenodd" d="M510,370 L-510,370" vector-effect="none"/>
  </g>
  <g font-family="Ubuntu" stroke-width="1" font-style="normal" stroke-linecap="square" font-size="38.8056" transform="matrix(1,0,0,1,1485,1050)" fill="none" stroke="#000000" font-weight="400" stroke-opacity="1" stroke-linejoin="bevel"/>
  <g font-family="Ubuntu" stroke-width="1" font-style="normal" stroke-linecap="square" font-size="38.8056" transform="matrix(1,0,0,1,1485,1050)" fill="none" stroke="#000000" font-weight="400" stroke-opacity="1" stroke-linejoin="bevel"/>
  <g font-family="Ubuntu" stroke-width="7" font-style="normal" stroke-linecap="round" font-size="38.8056" transform="matrix(1,0,0,1,1485,1050)" fill="none" stroke="#000000" font-weight="400" stroke-opacity="1" stroke-linejoin="bevel">
   <path fill-rule="evenodd" d="M-322,-315 C-322,-303.954 -330.954,-295 -342,-295 C-353.046,-295 -362,-303.954 -362,-315 C-362,-326.046 -353.046,-335 -342,-335 C-330.954,-335 -322,-326.046 -322,-315 " vector-effect="none"/>
  </g>
  <g font-family="Ubuntu" stroke-width="1" font-style="normal" stroke-linecap="square" font-size="38.8056" transform="matrix(1,0,0,1,1485,1050)" fill="none" stroke="#000000" font-weight="400" stroke-opacity="1" stroke-linejoin="bevel"/>
  <g font-family="Ubuntu" stroke-width="1" font-style="normal" stroke-linecap="square" font-size="38.8056" transform="matrix(1,0,0,1,1485,1050)" fill="none" stroke="#000000" font-weight="400" stroke-opacity="1" stroke-linejoin="bevel"/>
  <g font-family="Ubuntu" stroke-width="7" font-style="normal" stroke-linecap="round" font-size="38.8056" transform="matrix(1,0,0,1,1485,1050)" fill="none" stroke="#000000" font-weight="400" stroke-opacity="1" stroke-linejoin="bevel">
   <path fill-rule="evenodd" d="M400,-260 L-400,-260" vector-effect="none"/>
  </g>
  <g font-family="Ubuntu" stroke-width="1" font-style="normal" stroke-linecap="square" font-size="38.8056" transform="matrix(1,0,0,1,1485,1050)" fill="none" stroke="#000000" font-weight="400" stroke-opacity="1" stroke-linejoin="bevel"/>
  <g font-family="Ubuntu" stroke-width="1" font-style="normal" stroke-linecap="square" font-size="38.8056" transform="matrix(1,0,0,1,1485,1050)" fill="none" stroke="#000000" font-weight="400" stroke-opacity="1" stroke-linejoin="bevel"/>
  <g font-family="Ubuntu" stroke-width="7" font-style="normal" stroke-linecap="round" font-size="38.8056" transform="matrix(1,0,0,1,1485,1050)" fill="none" stroke="#000000" font-weight="400" stroke-opacity="1" stroke-linejoin="bevel">
   <path fill-rule="evenodd" d="M400,260 L400,-260" vector-effect="none"/>
  </g>
  <g font-family="Ubuntu" stroke-width="1" font-style="normal" stroke-linecap="square" font-size="38.8056" transform="matrix(1,0,0,1,1485,1050)" fill="none" stroke="#000000" font-weight="400" stroke-opacity="1" stroke-linejoin="bevel"/>
  <g font-family="Ubuntu" stroke-width="1" font-style="normal" stroke-linecap="square" font-size="38.8056" transform="matrix(1,0,0,1,1485,1050)" fill="none" stroke="#000000" font-weight="400" stroke-opacity="1" stroke-linejoin="bevel"/>
  <g font-family="Ubuntu" stroke-width="7" font-style="normal" stroke-linecap="round" font-size="38.8056" transform="matrix(1,0,0,1,1485,1050)" fill="none" stroke="#000000" font-weight="400" stroke-opacity="1" stroke-linejoin="bevel">
   <path fill-rule="evenodd" d="M-400,-260 L-400,260" vector-effect="none"/>
  </g>
  <g font-family="Ubuntu" stroke-width="1" font-style="normal" stroke-linecap="square" font-size="38.8056" transform="matrix(1,0,0,1,1485,1050)" fill="none" stroke="#000000" font-weight="400" stroke-opacity="1" stroke-linejoin="bevel"/>
  <g font-family="Ubuntu" stroke-width="1" font-style="normal" stroke-linecap="square" font-size="38.8056" transform="matrix(1,0,0,1,1485,1050)" fill="none" stroke="#000000" font-weight="400" stroke-opacity="1" stroke-linejoin="bevel"/>
  <g font-family="Ubuntu" stroke-width="7" font-style="normal" stroke-linecap="round" font-size="38.8056" transform="matrix(1,0,0,1,1485,1050)" fill="none" stroke="#000000" font-weight="400" stroke-opacity="1" stroke-linejoin="bevel">
   <path fill-rule="evenodd" d="M-400,260 L400,260" vector-effect="none"/>
  </g>
  <g font-family="Ubuntu" stroke-width="1" font-style="normal" stroke-linecap="square" font-size="38.8056" transform="matrix(1,0,0,1,1485,1050)" fill="none" stroke="#000000" font-weight="400" stroke-opacity="1" stroke-linejoin="bevel"/>
  <g font-family="Ubuntu" stroke-width="1" font-style="normal" stroke-linecap="square" font-size="38.8056" transform="matrix(1,0,0,1,1485,1050)" fill="none" stroke="#000000" font-weight="400" stroke-opacity="1" stroke-linejoin="bevel"/>
  <g font-family="Ubuntu" stroke-width="7" font-style="normal" stroke-linecap="round" font-size="38.8056" transform="matrix(1,0,0,1,1485,1050)" fill="none" stroke="#000000" font-weight="400" stroke-opacity="1" stroke-linejoin="bevel">
   <path fill-rule="evenodd" d="M-322,315 C-322,326.046 -330.954,335 -342,335 C-353.046,335 -362,326.046 -362,315 C-362,303.954 -353.046,295 -342,295 C-330.954,295 -322,303.954 -322,315 " vector-effect="none"/>
  </g>
  <g font-family="Ubuntu" stroke-width="1" font-style="normal" stroke-linecap="square" font-size="38.8056" transform="matrix(1,0,0,1,1485,1050)" fill="none" stroke="#000000" font-weight="400" stroke-opacity="1" stroke-linejoin="bevel"/>
  <g font-family="Ubuntu" stroke-width="1" font-style="normal" stroke-linecap="square" font-size="38.8056" transform="matrix(1,0,0,1,1485,1050)" fill="none" stroke="#000000" font-weight="400" stroke-opacity="1" stroke-linejoin="bevel"/>
  <g font-family="Ubuntu" stroke-width="7" font-style="normal" stroke-linecap="round" font-size="38.8056" transform="matrix(1,0,0,1,1485,1050)" fill="none" stroke="#000000" font-weight="400" stroke-opacity="1" stroke-linejoin="bevel">
   <path fill-rule="evenodd" d="M362,315 C362,326.046 353.046,335 342,335 C330.954,335 322,326.046 322,315 C322,303.954 330.954,295 342,295 C353.046,295 362,303.954 362,315 " vector-effect="none"/>
  </g>
  <g font-family="Ubuntu" stroke-width="1" font-style="normal" stroke-linecap="square" font-size="38.8056" transform="matrix(1,0,0,1,1485,1050)" fill="none" stroke="#000000" font-weight="400" stroke-opacity="1" stroke-linejoin="bevel"/>
  <g font-family="Ubuntu" stroke-width="1" font-style="normal" stroke-linecap="square" font-size="38.8056" transform="matrix(1,0,0,1,1485,1050)" fill="none" stroke="#000000" font-weight="400" stroke-opacity="1" stroke-linejoin="bevel"/>
  <g font-family="Ubuntu" stroke-width="7" font-style="normal" stroke-linecap="round" font-size="38.8056" transform="matrix(1,0,0,1,1485,1050)" fill="none" stroke="#000000" font-weight="400" stroke-opacity="1" stroke-linejoin="bevel">
   <path fill-rule="evenodd" d="M362,-315 C362,-303.954 353.046,-295 342,-295 C330.954,-295 322,-303.954 322,-315 C322,-326.046 330.954,-335 342,-335 C353.046,-335 362,-326.046 362,-315 " vector-effect="none"/>
  </g>
  <g font-family="Ubuntu" stroke-width="1" font-style="normal" stroke-linecap="square" font-size="38.8056" transform="matrix(1,0,0,1,1485,1050)" fill="none" stroke="#000000" font-weight="400" stroke-opacity="1" stroke-linejoin="bevel"/>
  <g font-family="Ubuntu" stroke-width="1" font-style="normal" stroke-linecap="square" font-size="38.8056" transform="matrix(1,0,0,1,1143,735)" fill="none" stroke="#000000" font-weight="400" stroke-opacity="1" stroke-linejoin="bevel"/>
  <g font-family="Ubuntu" stroke-width="3.5" font-style="normal" stroke-linecap="round" font-size="38.8056" transform="matrix(1,0,0,1,1143,735)" fill="#000000" stroke="#000000" font-weight="400" stroke-opacity="1" stroke-linejoin="bevel" fill-opacity="1">
   <path fill-rule="evenodd" d="M0,42 L0,-42 M42,0 L-42,0" vector-effect="none"/>
  </g>
  <g font-family="Ubuntu" stroke-width="1" font-style="normal" stroke-linecap="square" font-size="38.8056" transform="matrix(1,0,0,1,1143,735)" fill="none" stroke="#000000" font-weight="400" stroke-opacity="1" stroke-linejoin="bevel"/>
  <g font-family="Ubuntu" stroke-width="1" font-style="normal" stroke-linecap="square" font-size="38.8056" transform="matrix(1,0,0,1,1143,1365)" fill="none" stroke="#000000" font-weight="400" stroke-opacity="1" stroke-linejoin="bevel"/>
  <g font-family="Ubuntu" stroke-width="3.5" font-style="normal" stroke-linecap="round" font-size="38.8056" transform="matrix(1,0,0,1,1143,1365)" fill="#000000" stroke="#000000" font-weight="400" stroke-opacity="1" stroke-linejoin="bevel" fill-opacity="1">
   <path fill-rule="evenodd" d="M0,42 L0,-42 M42,0 L-42,0" vector-effect="none"/>
  </g>
  <g font-family="Ubuntu" stroke-width="1" font-style="normal" stroke-linecap="square" font-size="38.8056" transform="matrix(1,0,0,1,1143,1365)" fill="none" stroke="#000000" font-weight="400" stroke-opacity="1" stroke-linejoin="bevel"/>
  <g font-family="Ubuntu" stroke-width="1" font-style="normal" stroke-linecap="square" font-size="38.8056" transform="matrix(1,0,0,1,1827,1365)" fill="none" stroke="#000000" font-weight="400" stroke-opacity="1" stroke-linejoin="bevel"/>
  <g font-family="Ubuntu" stroke-width="3.5" font-style="normal" stroke-linecap="round" font-size="38.8056" transform="matrix(1,0,0,1,1827,1365)" fill="#000000" stroke="#000000" font-weight="400" stroke-opacity="1" stroke-linejoin="bevel" fill-opacity="1">
   <path fill-rule="evenodd" d="M0,42 L0,-42 M42,0 L-42,0" vector-effect="none"/>
  </g>
  <g font-family="Ubuntu" stroke-width="1" font-style="normal" stroke-linecap="square" font-size="38.8056" transform="matrix(1,0,0,1,1827,1365)" fill="none" stroke="#000000" font-weight="400" stroke-opacity="1" stroke-linejoin="bevel"/>
  <g font-family="Ubuntu" stroke-width="1" font-style="normal" stroke-linecap="square" font-size="38.8056" transform="matrix(1,0,0,1,1827,735)" fill="none" stroke="#000000" font-weight="400" stroke-opacity="1" stroke-linejoin="bevel"/>
  <g font-family="Ubuntu" stroke-width="3.5" font-style="normal" stroke-linecap="round" font-size="38.8056" transform="matrix(1,0,0,1,1827,735)" fill="#000000" stroke="#000000" font-weight="400" stroke-opacity="1" stroke-linejoin="bevel" fill-opacity="1">
   <path fill-rule="evenodd" d="M0,42 L0,-42 M42,0 L-42,0" vector-effect="none"/>
  </g>
  <g font-family="Ubuntu" stroke-width="1" font-style="normal" stroke-linecap="square" font-size="38.8056" transform="matrix(1,0,0,1,1827,735)" fill="none" stroke="#000000" font-weight="400" stroke-opacity="1" stroke-linejoin="bevel"/>
  <g font-family="Ubuntu" stroke-width="1" font-style="normal" stroke-linecap="square" font-size="38.8056" transform="matrix(1,0,0,1,0,0)" fill="none" stroke="#000000" font-weight="400" stroke-opacity="1" stroke-linejoin="bevel"/>
 </g>
</svg>
