<?xml version='1.0' encoding='UTF-8' standalone='no'?>
<svg width="297mm" height="210mm" xmlns:xlink="http://www.w3.org/1999/xlink" version="1.2" viewBox="0 0 2970 2100" baseProfile="tiny" xmlns="http://www.w3.org/2000/svg">
 <title>FreeCAD SVG Export</title>
 <desc>Drawing page: Page012 exported from FreeCAD document: j__rviradio_radio</desc>
 <defs/>
 <g stroke-linecap="square" fill-rule="evenodd" stroke-width="1" id="Page012" stroke-linejoin="bevel" stroke="black" fill="none">
  <g stroke-linecap="square" font-family="Ubuntu" stroke-width="1" stroke-linejoin="bevel" font-size="38.8056" font-style="normal" stroke="#000000" stroke-opacity="1" transform="matrix(1,0,0,1,0,0)" font-weight="400" fill="none"/>
  <g stroke-linecap="square" font-family="Ubuntu" stroke-width="1" stroke-linejoin="bevel" font-size="38.8056" font-style="normal" stroke="#000000" stroke-opacity="1" transform="matrix(1,0,0,1,0,2100)" font-weight="400" fill="none"/>
  <g stroke-linecap="square" font-family="Ubuntu" stroke-width="1" stroke-linejoin="bevel" font-size="38.8056" font-style="normal" stroke="#000000" stroke-opacity="1" transform="matrix(1,0,0,1,0,2100)" font-weight="400" fill="none"/>
  <g stroke-linecap="square" font-family="Ubuntu" stroke-width="1" stroke-linejoin="bevel" font-size="38.8056" font-style="normal" stroke="#000000" stroke-opacity="1" transform="matrix(2.82319,0,0,2.82258,0,0)" font-weight="400" fill="none"/>
  <g stroke-linecap="square" font-family="Ubuntu" stroke-width="1" stroke-linejoin="bevel" font-size="38.8056" font-style="normal" stroke="#000000" stroke-opacity="1" transform="matrix(2.82319,0,0,2.82258,0,0)" font-weight="400" fill="none"/>
  <g stroke-linecap="square" font-family="Ubuntu" stroke-width="1" stroke-linejoin="bevel" font-size="38.8056" font-style="normal" stroke="#000000" stroke-opacity="1" transform="matrix(2.82319,0,0,2.82258,0,0)" font-weight="400" fill="none"/>
  <g stroke-linecap="square" font-family="Ubuntu" stroke-width="1" stroke-linejoin="bevel" font-size="38.8056" font-style="normal" stroke="#000000" stroke-opacity="1" transform="matrix(2.82319,0,0,2.82258,0,0)" font-weight="400" fill="none"/>
  <g stroke-linecap="square" font-family="Ubuntu" stroke-width="1" stroke-linejoin="bevel" font-size="38.8056" font-style="normal" stroke="#000000" stroke-opacity="1" transform="matrix(1,0,0,1,0,0)" font-weight="400" fill="none"/>
  <g stroke-linecap="square" font-family="Ubuntu" stroke-width="1" stroke-linejoin="bevel" font-size="38.8056" font-style="normal" stroke="#000000" stroke-opacity="1" transform="matrix(2.82319,0,0,2.82258,0,0)" font-weight="400" fill="none"/>
  <g stroke-linecap="square" font-family="Ubuntu" stroke-width="1" stroke-linejoin="bevel" font-size="38.8056" font-style="normal" stroke="#000000" stroke-opacity="1" transform="matrix(1,0,0,1,189.944,188.03)" font-weight="400" fill="none"/>
  <g stroke-linecap="square" font-family="Ubuntu" stroke-width="1" stroke-linejoin="bevel" font-size="38.8056" font-style="normal" stroke="#000000" stroke-opacity="1" transform="matrix(1,0,0,1,189.944,188.03)" font-weight="400" fill="none"/>
  <g stroke-linecap="square" font-family="Ubuntu" stroke-width="1" stroke-linejoin="bevel" font-size="38.8056" font-style="normal" stroke="#000000" stroke-opacity="1" transform="matrix(1,0,0,1,185.944,385.53)" font-weight="400" fill="none"/>
  <g stroke-linecap="square" font-family="Ubuntu" stroke-width="1" stroke-linejoin="bevel" font-size="38.8056" font-style="normal" stroke="#000000" stroke-opacity="1" transform="matrix(0.353,0,0,0.353,177.944,445.89)" font-weight="400" fill="none"/>
  <g stroke-linecap="square" font-family="Ubuntu" stroke-width="1" stroke-linejoin="bevel" font-size="38.8056" font-style="normal" stroke="#000000" stroke-opacity="1" transform="matrix(0.353,0,0,0.353,177.944,445.89)" font-weight="400" fill="none"/>
  <g stroke-linecap="square" font-family="Ubuntu" stroke-width="1" stroke-linejoin="bevel" font-size="38.8056" font-style="normal" stroke="#000000" stroke-opacity="1" transform="matrix(0.353,0,0,0.353,177.944,445.89)" font-weight="400" fill="none"/>
  <g stroke-linecap="square" font-family="Ubuntu" stroke-width="1" stroke-linejoin="bevel" font-size="38.8056" font-style="normal" stroke="#000000" stroke-opacity="1" transform="matrix(0.353,0,0,0.353,177.944,445.89)" font-weight="400" fill="none"/>
  <g stroke-linecap="square" font-family="Ubuntu" stroke-width="1" stroke-linejoin="bevel" font-size="38.8056" font-style="normal" stroke="#000000" stroke-opacity="1" transform="matrix(1,0,0,1,0,0)" font-weight="400" fill="none"/>
  <g stroke-linecap="square" font-family="Ubuntu" stroke-width="1" stroke-linejoin="bevel" font-size="38.8056" font-style="normal" stroke="#000000" stroke-opacity="1" transform="matrix(0.353,0,0,0.353,177.944,445.89)" font-weight="400" fill="none"/>
  <g stroke-linecap="square" font-family="Ubuntu" stroke-width="1" stroke-linejoin="bevel" font-size="38.8056" font-style="normal" stroke="#000000" stroke-opacity="1" transform="matrix(0.353,0,0,0.353,177.944,445.89)" font-weight="400" fill="none"/>
  <g stroke-linecap="square" font-family="Ubuntu" stroke-width="1" stroke-linejoin="bevel" font-size="38.8056" font-style="normal" stroke="#000000" stroke-opacity="1" transform="matrix(1,0,0,1,185.944,385.53)" font-weight="400" fill="none"/>
  <g stroke-linecap="square" font-family="Ubuntu" stroke-width="1" stroke-linejoin="bevel" font-size="38.8056" font-style="normal" stroke="#000000" stroke-opacity="1" transform="matrix(1,0,0,1,189.944,188.03)" font-weight="400" fill="none"/>
  <g fill-opacity="1" font-family="Ubuntu" font-size="38.8056" font-style="normal" stroke="none" transform="matrix(1,0,0,1,189.944,188.03)" font-weight="400" fill="#ffffff">
   <path fill-rule="evenodd" d="M175,175 L175,-175 L-175,-175 L-175,175 L175,175" vector-effect="non-scaling-stroke"/>
  </g>
  <g stroke-linecap="square" font-family="Ubuntu" stroke-width="1" stroke-linejoin="bevel" font-size="38.8056" font-style="normal" stroke="#000000" stroke-opacity="1" transform="matrix(1,0,0,1,189.944,188.03)" font-weight="400" fill="none"/>
  <g stroke-linecap="square" font-family="Ubuntu" stroke-width="1" stroke-linejoin="bevel" font-size="38.8056" font-style="normal" stroke="#000000" stroke-opacity="1" transform="matrix(1,0,0,1,189.944,188.03)" font-weight="400" fill="none"/>
  <g stroke-linecap="square" font-family="Ubuntu" stroke-width="1" stroke-linejoin="bevel" font-size="38.8056" font-style="normal" stroke="#000000" stroke-opacity="1" transform="matrix(1,0,0,1,189.944,188.03)" font-weight="400" fill="none"/>
  <g stroke-linecap="square" font-family="Ubuntu" stroke-width="1" stroke-linejoin="bevel" font-size="38.8056" font-style="normal" stroke="#000000" stroke-opacity="1" transform="matrix(1,0,0,1,0,0)" font-weight="400" fill="none"/>
  <g stroke-linecap="square" font-family="Ubuntu" stroke-width="1" stroke-linejoin="bevel" font-size="38.8056" font-style="normal" stroke="#000000" stroke-opacity="1" transform="matrix(1,0,0,1,189.944,188.03)" font-weight="400" fill="none"/>
  <g stroke-linecap="square" font-family="Ubuntu" stroke-width="1" stroke-linejoin="bevel" font-size="38.8056" font-style="normal" stroke="#000000" stroke-opacity="1" transform="matrix(1,0,0,1,189.944,188.03)" font-weight="400" fill="none"/>
  <g fill-opacity="1" font-family="Ubuntu" font-size="38.8056" font-style="normal" stroke="none" transform="matrix(1,0,0,1,189.944,188.03)" font-weight="400" fill="#ffffff">
   <path fill-rule="evenodd" d="M45.5,4.99994 L45.5,-4.99994 L45.5,-4.99994 C45.5,-30.1289 25.129,-50.5 7.24661e-14,-50.5 C-25.129,-50.5 -45.5,-30.1289 -45.5,-4.99994 L-45.5,-4.99994 L-45.5,4.99994 C-45.5,30.1289 -25.129,50.5 2.78606e-15,50.5 C25.129,50.5 45.5,30.1289 45.5,4.99994 " vector-effect="non-scaling-stroke"/>
  </g>
  <g stroke-linecap="square" font-family="Ubuntu" stroke-width="1" stroke-linejoin="bevel" font-size="38.8056" font-style="normal" stroke="#000000" stroke-opacity="1" transform="matrix(1,0,0,1,189.944,188.03)" font-weight="400" fill="none"/>
  <g stroke-linecap="square" font-family="Ubuntu" stroke-width="1" stroke-linejoin="bevel" font-size="38.8056" font-style="normal" stroke="#000000" stroke-opacity="1" transform="matrix(1,0,0,1,189.944,188.03)" font-weight="400" fill="none"/>
  <g stroke-linecap="square" font-family="Ubuntu" stroke-width="1" stroke-linejoin="bevel" font-size="38.8056" font-style="normal" stroke="#000000" stroke-opacity="1" transform="matrix(1,0,0,1,189.944,188.03)" font-weight="400" fill="none"/>
  <g stroke-linecap="square" font-family="Ubuntu" stroke-width="1" stroke-linejoin="bevel" font-size="38.8056" font-style="normal" stroke="#000000" stroke-opacity="1" transform="matrix(1,0,0,1,0,0)" font-weight="400" fill="none"/>
  <g stroke-linecap="square" font-family="Ubuntu" stroke-width="1" stroke-linejoin="bevel" font-size="38.8056" font-style="normal" stroke="#000000" stroke-opacity="1" transform="matrix(1,0,0,1,189.944,188.03)" font-weight="400" fill="none"/>
  <g stroke-linecap="square" font-family="Ubuntu" stroke-width="1" stroke-linejoin="bevel" font-size="38.8056" font-style="normal" stroke="#000000" stroke-opacity="1" transform="matrix(1,0,0,1,189.944,188.03)" font-weight="400" fill="none"/>
  <g fill-opacity="1" font-family="Ubuntu" font-size="38.8056" font-style="normal" stroke="none" transform="matrix(1,0,0,1,189.944,188.03)" font-weight="400" fill="#ffffff">
   <path fill-rule="evenodd" d="M150,-125 C150,-111.193 138.807,-100 125,-100 C111.193,-100 100,-111.193 100,-125 C100,-138.807 111.193,-150 125,-150 C138.807,-150 150,-138.807 150,-125 " vector-effect="non-scaling-stroke"/>
  </g>
  <g stroke-linecap="square" font-family="Ubuntu" stroke-width="1" stroke-linejoin="bevel" font-size="38.8056" font-style="normal" stroke="#000000" stroke-opacity="1" transform="matrix(1,0,0,1,189.944,188.03)" font-weight="400" fill="none"/>
  <g stroke-linecap="square" font-family="Ubuntu" stroke-width="1" stroke-linejoin="bevel" font-size="38.8056" font-style="normal" stroke="#000000" stroke-opacity="1" transform="matrix(1,0,0,1,189.944,188.03)" font-weight="400" fill="none"/>
  <g stroke-linecap="square" font-family="Ubuntu" stroke-width="1" stroke-linejoin="bevel" font-size="38.8056" font-style="normal" stroke="#000000" stroke-opacity="1" transform="matrix(1,0,0,1,189.944,188.03)" font-weight="400" fill="none"/>
  <g stroke-linecap="square" font-family="Ubuntu" stroke-width="1" stroke-linejoin="bevel" font-size="38.8056" font-style="normal" stroke="#000000" stroke-opacity="1" transform="matrix(1,0,0,1,0,0)" font-weight="400" fill="none"/>
  <g stroke-linecap="square" font-family="Ubuntu" stroke-width="1" stroke-linejoin="bevel" font-size="38.8056" font-style="normal" stroke="#000000" stroke-opacity="1" transform="matrix(1,0,0,1,189.944,188.03)" font-weight="400" fill="none"/>
  <g stroke-linecap="square" font-family="Ubuntu" stroke-width="1" stroke-linejoin="bevel" font-size="38.8056" font-style="normal" stroke="#000000" stroke-opacity="1" transform="matrix(1,0,0,1,189.944,188.03)" font-weight="400" fill="none"/>
  <g fill-opacity="1" font-family="Ubuntu" font-size="38.8056" font-style="normal" stroke="none" transform="matrix(1,0,0,1,189.944,188.03)" font-weight="400" fill="#ffffff">
   <path fill-rule="evenodd" d="M150,125 C150,138.807 138.807,150 125,150 C111.193,150 100,138.807 100,125 C100,111.193 111.193,100 125,100 C138.807,100 150,111.193 150,125 " vector-effect="non-scaling-stroke"/>
  </g>
  <g stroke-linecap="square" font-family="Ubuntu" stroke-width="1" stroke-linejoin="bevel" font-size="38.8056" font-style="normal" stroke="#000000" stroke-opacity="1" transform="matrix(1,0,0,1,189.944,188.03)" font-weight="400" fill="none"/>
  <g stroke-linecap="square" font-family="Ubuntu" stroke-width="1" stroke-linejoin="bevel" font-size="38.8056" font-style="normal" stroke="#000000" stroke-opacity="1" transform="matrix(1,0,0,1,189.944,188.03)" font-weight="400" fill="none"/>
  <g stroke-linecap="square" font-family="Ubuntu" stroke-width="1" stroke-linejoin="bevel" font-size="38.8056" font-style="normal" stroke="#000000" stroke-opacity="1" transform="matrix(1,0,0,1,189.944,188.03)" font-weight="400" fill="none"/>
  <g stroke-linecap="square" font-family="Ubuntu" stroke-width="1" stroke-linejoin="bevel" font-size="38.8056" font-style="normal" stroke="#000000" stroke-opacity="1" transform="matrix(1,0,0,1,0,0)" font-weight="400" fill="none"/>
  <g stroke-linecap="square" font-family="Ubuntu" stroke-width="1" stroke-linejoin="bevel" font-size="38.8056" font-style="normal" stroke="#000000" stroke-opacity="1" transform="matrix(1,0,0,1,189.944,188.03)" font-weight="400" fill="none"/>
  <g stroke-linecap="square" font-family="Ubuntu" stroke-width="1" stroke-linejoin="bevel" font-size="38.8056" font-style="normal" stroke="#000000" stroke-opacity="1" transform="matrix(1,0,0,1,189.944,188.03)" font-weight="400" fill="none"/>
  <g fill-opacity="1" font-family="Ubuntu" font-size="38.8056" font-style="normal" stroke="none" transform="matrix(1,0,0,1,189.944,188.03)" font-weight="400" fill="#ffffff">
   <path fill-rule="evenodd" d="M-100,-125 C-100,-111.193 -111.193,-100 -125,-100 C-138.807,-100 -150,-111.193 -150,-125 C-150,-138.807 -138.807,-150 -125,-150 C-111.193,-150 -100,-138.807 -100,-125 " vector-effect="non-scaling-stroke"/>
  </g>
  <g stroke-linecap="square" font-family="Ubuntu" stroke-width="1" stroke-linejoin="bevel" font-size="38.8056" font-style="normal" stroke="#000000" stroke-opacity="1" transform="matrix(1,0,0,1,189.944,188.03)" font-weight="400" fill="none"/>
  <g stroke-linecap="square" font-family="Ubuntu" stroke-width="1" stroke-linejoin="bevel" font-size="38.8056" font-style="normal" stroke="#000000" stroke-opacity="1" transform="matrix(1,0,0,1,189.944,188.03)" font-weight="400" fill="none"/>
  <g stroke-linecap="square" font-family="Ubuntu" stroke-width="1" stroke-linejoin="bevel" font-size="38.8056" font-style="normal" stroke="#000000" stroke-opacity="1" transform="matrix(1,0,0,1,189.944,188.03)" font-weight="400" fill="none"/>
  <g stroke-linecap="square" font-family="Ubuntu" stroke-width="1" stroke-linejoin="bevel" font-size="38.8056" font-style="normal" stroke="#000000" stroke-opacity="1" transform="matrix(1,0,0,1,0,0)" font-weight="400" fill="none"/>
  <g stroke-linecap="square" font-family="Ubuntu" stroke-width="1" stroke-linejoin="bevel" font-size="38.8056" font-style="normal" stroke="#000000" stroke-opacity="1" transform="matrix(1,0,0,1,189.944,188.03)" font-weight="400" fill="none"/>
  <g stroke-linecap="square" font-family="Ubuntu" stroke-width="1" stroke-linejoin="bevel" font-size="38.8056" font-style="normal" stroke="#000000" stroke-opacity="1" transform="matrix(1,0,0,1,189.944,188.03)" font-weight="400" fill="none"/>
  <g fill-opacity="1" font-family="Ubuntu" font-size="38.8056" font-style="normal" stroke="none" transform="matrix(1,0,0,1,189.944,188.03)" font-weight="400" fill="#ffffff">
   <path fill-rule="evenodd" d="M-100,125 C-100,138.807 -111.193,150 -125,150 C-138.807,150 -150,138.807 -150,125 C-150,111.193 -138.807,100 -125,100 C-111.193,100 -100,111.193 -100,125 " vector-effect="non-scaling-stroke"/>
  </g>
  <g stroke-linecap="square" font-family="Ubuntu" stroke-width="1" stroke-linejoin="bevel" font-size="38.8056" font-style="normal" stroke="#000000" stroke-opacity="1" transform="matrix(1,0,0,1,189.944,188.03)" font-weight="400" fill="none"/>
  <g stroke-linecap="square" font-family="Ubuntu" stroke-width="1" stroke-linejoin="bevel" font-size="38.8056" font-style="normal" stroke="#000000" stroke-opacity="1" transform="matrix(1,0,0,1,189.944,188.03)" font-weight="400" fill="none"/>
  <g stroke-linecap="square" font-family="Ubuntu" stroke-width="1" stroke-linejoin="bevel" font-size="38.8056" font-style="normal" stroke="#000000" stroke-opacity="1" transform="matrix(1,0,0,1,189.944,188.03)" font-weight="400" fill="none"/>
  <g stroke-linecap="square" font-family="Ubuntu" stroke-width="1" stroke-linejoin="bevel" font-size="38.8056" font-style="normal" stroke="#000000" stroke-opacity="1" transform="matrix(1,0,0,1,0,0)" font-weight="400" fill="none"/>
  <g stroke-linecap="square" font-family="Ubuntu" stroke-width="1" stroke-linejoin="bevel" font-size="38.8056" font-style="normal" stroke="#000000" stroke-opacity="1" transform="matrix(1,0,0,1,189.944,188.03)" font-weight="400" fill="none"/>
  <g stroke-linecap="square" font-family="Ubuntu" stroke-width="1" stroke-linejoin="bevel" font-size="38.8056" font-style="normal" stroke="#000000" stroke-opacity="1" transform="matrix(1,0,0,1,189.944,188.03)" font-weight="400" fill="none"/>
  <g stroke-linecap="round" font-family="Ubuntu" stroke-width="7" stroke-linejoin="bevel" font-size="38.8056" font-style="normal" stroke="#000000" stroke-opacity="1" transform="matrix(1,0,0,1,189.944,188.03)" font-weight="400" fill="none">
   <path fill-rule="evenodd" d="M-175,175 L175,175" vector-effect="none"/>
  </g>
  <g stroke-linecap="square" font-family="Ubuntu" stroke-width="1" stroke-linejoin="bevel" font-size="38.8056" font-style="normal" stroke="#000000" stroke-opacity="1" transform="matrix(1,0,0,1,189.944,188.03)" font-weight="400" fill="none"/>
  <g stroke-linecap="square" font-family="Ubuntu" stroke-width="1" stroke-linejoin="bevel" font-size="38.8056" font-style="normal" stroke="#000000" stroke-opacity="1" transform="matrix(1,0,0,1,189.944,188.03)" font-weight="400" fill="none"/>
  <g stroke-linecap="round" font-family="Ubuntu" stroke-width="7" stroke-linejoin="bevel" font-size="38.8056" font-style="normal" stroke="#000000" stroke-opacity="1" transform="matrix(1,0,0,1,189.944,188.03)" font-weight="400" fill="none">
   <path fill-rule="evenodd" d="M175,175 L175,-175" vector-effect="none"/>
  </g>
  <g stroke-linecap="square" font-family="Ubuntu" stroke-width="1" stroke-linejoin="bevel" font-size="38.8056" font-style="normal" stroke="#000000" stroke-opacity="1" transform="matrix(1,0,0,1,189.944,188.03)" font-weight="400" fill="none"/>
  <g stroke-linecap="square" font-family="Ubuntu" stroke-width="1" stroke-linejoin="bevel" font-size="38.8056" font-style="normal" stroke="#000000" stroke-opacity="1" transform="matrix(1,0,0,1,189.944,188.03)" font-weight="400" fill="none"/>
  <g stroke-linecap="round" font-family="Ubuntu" stroke-width="7" stroke-linejoin="bevel" font-size="38.8056" font-style="normal" stroke="#000000" stroke-opacity="1" transform="matrix(1,0,0,1,189.944,188.03)" font-weight="400" fill="none">
   <path fill-rule="evenodd" d="M175,-175 L-175,-175" vector-effect="none"/>
  </g>
  <g stroke-linecap="square" font-family="Ubuntu" stroke-width="1" stroke-linejoin="bevel" font-size="38.8056" font-style="normal" stroke="#000000" stroke-opacity="1" transform="matrix(1,0,0,1,189.944,188.03)" font-weight="400" fill="none"/>
  <g stroke-linecap="square" font-family="Ubuntu" stroke-width="1" stroke-linejoin="bevel" font-size="38.8056" font-style="normal" stroke="#000000" stroke-opacity="1" transform="matrix(1,0,0,1,189.944,188.03)" font-weight="400" fill="none"/>
  <g stroke-linecap="round" font-family="Ubuntu" stroke-width="7" stroke-linejoin="bevel" font-size="38.8056" font-style="normal" stroke="#000000" stroke-opacity="1" transform="matrix(1,0,0,1,189.944,188.03)" font-weight="400" fill="none">
   <path fill-rule="evenodd" d="M-175,-175 L-175,175" vector-effect="none"/>
  </g>
  <g stroke-linecap="square" font-family="Ubuntu" stroke-width="1" stroke-linejoin="bevel" font-size="38.8056" font-style="normal" stroke="#000000" stroke-opacity="1" transform="matrix(1,0,0,1,189.944,188.03)" font-weight="400" fill="none"/>
  <g stroke-linecap="square" font-family="Ubuntu" stroke-width="1" stroke-linejoin="bevel" font-size="38.8056" font-style="normal" stroke="#000000" stroke-opacity="1" transform="matrix(1,0,0,1,189.944,188.03)" font-weight="400" fill="none"/>
  <g stroke-linecap="round" font-family="Ubuntu" stroke-width="7" stroke-linejoin="bevel" font-size="38.8056" font-style="normal" stroke="#000000" stroke-opacity="1" transform="matrix(1,0,0,1,189.944,188.03)" font-weight="400" fill="none">
   <path fill-rule="evenodd" d="M-100,125 C-100,138.807 -111.193,150 -125,150 C-138.807,150 -150,138.807 -150,125 C-150,111.193 -138.807,100 -125,100 C-111.193,100 -100,111.193 -100,125 " vector-effect="none"/>
  </g>
  <g stroke-linecap="square" font-family="Ubuntu" stroke-width="1" stroke-linejoin="bevel" font-size="38.8056" font-style="normal" stroke="#000000" stroke-opacity="1" transform="matrix(1,0,0,1,189.944,188.03)" font-weight="400" fill="none"/>
  <g stroke-linecap="square" font-family="Ubuntu" stroke-width="1" stroke-linejoin="bevel" font-size="38.8056" font-style="normal" stroke="#000000" stroke-opacity="1" transform="matrix(1,0,0,1,189.944,188.03)" font-weight="400" fill="none"/>
  <g stroke-linecap="round" font-family="Ubuntu" stroke-width="7" stroke-linejoin="bevel" font-size="38.8056" font-style="normal" stroke="#000000" stroke-opacity="1" transform="matrix(1,0,0,1,189.944,188.03)" font-weight="400" fill="none">
   <path fill-rule="evenodd" d="M150,125 C150,138.807 138.807,150 125,150 C111.193,150 100,138.807 100,125 C100,111.193 111.193,100 125,100 C138.807,100 150,111.193 150,125 " vector-effect="none"/>
  </g>
  <g stroke-linecap="square" font-family="Ubuntu" stroke-width="1" stroke-linejoin="bevel" font-size="38.8056" font-style="normal" stroke="#000000" stroke-opacity="1" transform="matrix(1,0,0,1,189.944,188.03)" font-weight="400" fill="none"/>
  <g stroke-linecap="square" font-family="Ubuntu" stroke-width="1" stroke-linejoin="bevel" font-size="38.8056" font-style="normal" stroke="#000000" stroke-opacity="1" transform="matrix(1,0,0,1,189.944,188.03)" font-weight="400" fill="none"/>
  <g stroke-linecap="round" font-family="Ubuntu" stroke-width="7" stroke-linejoin="bevel" font-size="38.8056" font-style="normal" stroke="#000000" stroke-opacity="1" transform="matrix(1,0,0,1,189.944,188.03)" font-weight="400" fill="none">
   <path fill-rule="evenodd" d="M-100,-125 C-100,-111.193 -111.193,-100 -125,-100 C-138.807,-100 -150,-111.193 -150,-125 C-150,-138.807 -138.807,-150 -125,-150 C-111.193,-150 -100,-138.807 -100,-125 " vector-effect="none"/>
  </g>
  <g stroke-linecap="square" font-family="Ubuntu" stroke-width="1" stroke-linejoin="bevel" font-size="38.8056" font-style="normal" stroke="#000000" stroke-opacity="1" transform="matrix(1,0,0,1,189.944,188.03)" font-weight="400" fill="none"/>
  <g stroke-linecap="square" font-family="Ubuntu" stroke-width="1" stroke-linejoin="bevel" font-size="38.8056" font-style="normal" stroke="#000000" stroke-opacity="1" transform="matrix(1,0,0,1,189.944,188.03)" font-weight="400" fill="none"/>
  <g stroke-linecap="round" font-family="Ubuntu" stroke-width="7" stroke-linejoin="bevel" font-size="38.8056" font-style="normal" stroke="#000000" stroke-opacity="1" transform="matrix(1,0,0,1,189.944,188.03)" font-weight="400" fill="none">
   <path fill-rule="evenodd" d="M150,-125 C150,-111.193 138.807,-100 125,-100 C111.193,-100 100,-111.193 100,-125 C100,-138.807 111.193,-150 125,-150 C138.807,-150 150,-138.807 150,-125 " vector-effect="none"/>
  </g>
  <g stroke-linecap="square" font-family="Ubuntu" stroke-width="1" stroke-linejoin="bevel" font-size="38.8056" font-style="normal" stroke="#000000" stroke-opacity="1" transform="matrix(1,0,0,1,189.944,188.03)" font-weight="400" fill="none"/>
  <g stroke-linecap="square" font-family="Ubuntu" stroke-width="1" stroke-linejoin="bevel" font-size="38.8056" font-style="normal" stroke="#000000" stroke-opacity="1" transform="matrix(1,0,0,1,189.944,188.03)" font-weight="400" fill="none"/>
  <g stroke-linecap="round" font-family="Ubuntu" stroke-width="7" stroke-linejoin="bevel" font-size="38.8056" font-style="normal" stroke="#000000" stroke-opacity="1" transform="matrix(1,0,0,1,189.944,188.03)" font-weight="400" fill="none">
   <path fill-rule="evenodd" d="M45.5,4.99994 C45.5,30.1289 25.129,50.5 2.78606e-15,50.5 C-25.129,50.5 -45.5,30.1289 -45.5,4.99994 " vector-effect="none"/>
  </g>
  <g stroke-linecap="square" font-family="Ubuntu" stroke-width="1" stroke-linejoin="bevel" font-size="38.8056" font-style="normal" stroke="#000000" stroke-opacity="1" transform="matrix(1,0,0,1,189.944,188.03)" font-weight="400" fill="none"/>
  <g stroke-linecap="square" font-family="Ubuntu" stroke-width="1" stroke-linejoin="bevel" font-size="38.8056" font-style="normal" stroke="#000000" stroke-opacity="1" transform="matrix(1,0,0,1,189.944,188.03)" font-weight="400" fill="none"/>
  <g stroke-linecap="round" font-family="Ubuntu" stroke-width="7" stroke-linejoin="bevel" font-size="38.8056" font-style="normal" stroke="#000000" stroke-opacity="1" transform="matrix(1,0,0,1,189.944,188.03)" font-weight="400" fill="none">
   <path fill-rule="evenodd" d="M45.5,4.99994 L45.5,-4.99994" vector-effect="none"/>
  </g>
  <g stroke-linecap="square" font-family="Ubuntu" stroke-width="1" stroke-linejoin="bevel" font-size="38.8056" font-style="normal" stroke="#000000" stroke-opacity="1" transform="matrix(1,0,0,1,189.944,188.03)" font-weight="400" fill="none"/>
  <g stroke-linecap="square" font-family="Ubuntu" stroke-width="1" stroke-linejoin="bevel" font-size="38.8056" font-style="normal" stroke="#000000" stroke-opacity="1" transform="matrix(1,0,0,1,189.944,188.03)" font-weight="400" fill="none"/>
  <g stroke-linecap="round" font-family="Ubuntu" stroke-width="7" stroke-linejoin="bevel" font-size="38.8056" font-style="normal" stroke="#000000" stroke-opacity="1" transform="matrix(1,0,0,1,189.944,188.03)" font-weight="400" fill="none">
   <path fill-rule="evenodd" d="M-45.5,-4.99994 C-45.5,-30.1289 -25.129,-50.5 7.24661e-14,-50.5 C25.129,-50.5 45.5,-30.1289 45.5,-4.99994 " vector-effect="none"/>
  </g>
  <g stroke-linecap="square" font-family="Ubuntu" stroke-width="1" stroke-linejoin="bevel" font-size="38.8056" font-style="normal" stroke="#000000" stroke-opacity="1" transform="matrix(1,0,0,1,189.944,188.03)" font-weight="400" fill="none"/>
  <g stroke-linecap="square" font-family="Ubuntu" stroke-width="1" stroke-linejoin="bevel" font-size="38.8056" font-style="normal" stroke="#000000" stroke-opacity="1" transform="matrix(1,0,0,1,189.944,188.03)" font-weight="400" fill="none"/>
  <g stroke-linecap="round" font-family="Ubuntu" stroke-width="7" stroke-linejoin="bevel" font-size="38.8056" font-style="normal" stroke="#000000" stroke-opacity="1" transform="matrix(1,0,0,1,189.944,188.03)" font-weight="400" fill="none">
   <path fill-rule="evenodd" d="M-45.5,4.99994 L-45.5,-4.99994" vector-effect="none"/>
  </g>
  <g stroke-linecap="square" font-family="Ubuntu" stroke-width="1" stroke-linejoin="bevel" font-size="38.8056" font-style="normal" stroke="#000000" stroke-opacity="1" transform="matrix(1,0,0,1,189.944,188.03)" font-weight="400" fill="none"/>
  <g stroke-linecap="square" font-family="Ubuntu" stroke-width="1" stroke-linejoin="bevel" font-size="38.8056" font-style="normal" stroke="#000000" stroke-opacity="1" transform="matrix(1,0,0,1,64.9441,313.03)" font-weight="400" fill="none"/>
  <g fill-opacity="1" stroke-linecap="round" font-family="Ubuntu" stroke-width="3.5" stroke-linejoin="bevel" font-size="38.8056" font-style="normal" stroke="#000000" stroke-opacity="1" transform="matrix(1,0,0,1,64.9441,313.03)" font-weight="400" fill="#000000">
   <path fill-rule="evenodd" d="M0,42 L0,-42 M42,0 L-42,0" vector-effect="none"/>
  </g>
  <g stroke-linecap="square" font-family="Ubuntu" stroke-width="1" stroke-linejoin="bevel" font-size="38.8056" font-style="normal" stroke="#000000" stroke-opacity="1" transform="matrix(1,0,0,1,64.9441,313.03)" font-weight="400" fill="none"/>
  <g stroke-linecap="square" font-family="Ubuntu" stroke-width="1" stroke-linejoin="bevel" font-size="38.8056" font-style="normal" stroke="#000000" stroke-opacity="1" transform="matrix(1,0,0,1,314.944,313.03)" font-weight="400" fill="none"/>
  <g fill-opacity="1" stroke-linecap="round" font-family="Ubuntu" stroke-width="3.5" stroke-linejoin="bevel" font-size="38.8056" font-style="normal" stroke="#000000" stroke-opacity="1" transform="matrix(1,0,0,1,314.944,313.03)" font-weight="400" fill="#000000">
   <path fill-rule="evenodd" d="M0,42 L0,-42 M42,0 L-42,0" vector-effect="none"/>
  </g>
  <g stroke-linecap="square" font-family="Ubuntu" stroke-width="1" stroke-linejoin="bevel" font-size="38.8056" font-style="normal" stroke="#000000" stroke-opacity="1" transform="matrix(1,0,0,1,314.944,313.03)" font-weight="400" fill="none"/>
  <g stroke-linecap="square" font-family="Ubuntu" stroke-width="1" stroke-linejoin="bevel" font-size="38.8056" font-style="normal" stroke="#000000" stroke-opacity="1" transform="matrix(1,0,0,1,64.9441,63.03)" font-weight="400" fill="none"/>
  <g fill-opacity="1" stroke-linecap="round" font-family="Ubuntu" stroke-width="3.5" stroke-linejoin="bevel" font-size="38.8056" font-style="normal" stroke="#000000" stroke-opacity="1" transform="matrix(1,0,0,1,64.9441,63.03)" font-weight="400" fill="#000000">
   <path fill-rule="evenodd" d="M0,42 L0,-42 M42,0 L-42,0" vector-effect="none"/>
  </g>
  <g stroke-linecap="square" font-family="Ubuntu" stroke-width="1" stroke-linejoin="bevel" font-size="38.8056" font-style="normal" stroke="#000000" stroke-opacity="1" transform="matrix(1,0,0,1,64.9441,63.03)" font-weight="400" fill="none"/>
  <g stroke-linecap="square" font-family="Ubuntu" stroke-width="1" stroke-linejoin="bevel" font-size="38.8056" font-style="normal" stroke="#000000" stroke-opacity="1" transform="matrix(1,0,0,1,314.944,63.03)" font-weight="400" fill="none"/>
  <g fill-opacity="1" stroke-linecap="round" font-family="Ubuntu" stroke-width="3.5" stroke-linejoin="bevel" font-size="38.8056" font-style="normal" stroke="#000000" stroke-opacity="1" transform="matrix(1,0,0,1,314.944,63.03)" font-weight="400" fill="#000000">
   <path fill-rule="evenodd" d="M0,42 L0,-42 M42,0 L-42,0" vector-effect="none"/>
  </g>
  <g stroke-linecap="square" font-family="Ubuntu" stroke-width="1" stroke-linejoin="bevel" font-size="38.8056" font-style="normal" stroke="#000000" stroke-opacity="1" transform="matrix(1,0,0,1,314.944,63.03)" font-weight="400" fill="none"/>
  <g stroke-linecap="square" font-family="Ubuntu" stroke-width="1" stroke-linejoin="bevel" font-size="38.8056" font-style="normal" stroke="#000000" stroke-opacity="1" transform="matrix(1,0,0,1,189.944,193.03)" font-weight="400" fill="none"/>
  <g fill-opacity="1" stroke-linecap="round" font-family="Ubuntu" stroke-width="3.5" stroke-linejoin="bevel" font-size="38.8056" font-style="normal" stroke="#000000" stroke-opacity="1" transform="matrix(1,0,0,1,189.944,193.03)" font-weight="400" fill="#000000">
   <path fill-rule="evenodd" d="M0,42 L0,-42 M42,0 L-42,0" vector-effect="none"/>
  </g>
  <g stroke-linecap="square" font-family="Ubuntu" stroke-width="1" stroke-linejoin="bevel" font-size="38.8056" font-style="normal" stroke="#000000" stroke-opacity="1" transform="matrix(1,0,0,1,189.944,193.03)" font-weight="400" fill="none"/>
  <g stroke-linecap="square" font-family="Ubuntu" stroke-width="1" stroke-linejoin="bevel" font-size="38.8056" font-style="normal" stroke="#000000" stroke-opacity="1" transform="matrix(1,0,0,1,189.944,183.03)" font-weight="400" fill="none"/>
  <g fill-opacity="1" stroke-linecap="round" font-family="Ubuntu" stroke-width="3.5" stroke-linejoin="bevel" font-size="38.8056" font-style="normal" stroke="#000000" stroke-opacity="1" transform="matrix(1,0,0,1,189.944,183.03)" font-weight="400" fill="#000000">
   <path fill-rule="evenodd" d="M0,42 L0,-42 M42,0 L-42,0" vector-effect="none"/>
  </g>
  <g stroke-linecap="square" font-family="Ubuntu" stroke-width="1" stroke-linejoin="bevel" font-size="38.8056" font-style="normal" stroke="#000000" stroke-opacity="1" transform="matrix(1,0,0,1,189.944,183.03)" font-weight="400" fill="none"/>
  <g stroke-linecap="square" font-family="Ubuntu" stroke-width="1" stroke-linejoin="bevel" font-size="38.8056" font-style="normal" stroke="#000000" stroke-opacity="1" transform="matrix(1,0,0,1,0,0)" font-weight="400" fill="none"/>
 </g>
</svg>
